<svg xmlns="http://www.w3.org/2000/svg" viewBox="0 0 292.11 322"><defs><style>.cls-1{fill:none;stroke:#3f1b71;stroke-miterlimit:10;stroke-width:4px;}.cls-2{fill:#cd8198;}.cls-3{fill:#e6c1cd;}.cls-4{fill:#d799ac;}.cls-5{fill:#fff;}.cls-6{fill:#b74a6c;}</style></defs><title>Asset 5</title><g id="Layer_2" data-name="Layer 2"><g id="icons"><g id="_12._Gamification" data-name="12. Gamification"><g id="_12-competition" data-name="12-competition"><path class="cls-1" d="M69.5,27.5S57.75,26.75,57.75,18V2H2V18H16.25s1,31,11,55.75S57.5,119.25,75.5,129.5c0,0,12.5,4.5,12.5,13.75s-7.4,12.85-16.5,8"/><path class="cls-1" d="M222.61,27.5s11.75-.75,11.75-9.5V2h55.75V18H275.86s-1,31-11,55.75-30.25,45.5-48.25,55.75c0,0-12.5,4.5-12.5,13.75s7.4,12.85,16.5,8"/><path class="cls-2" d="M156.17,217.67A57.59,57.59,0,0,0,162.5,210c64-77,64-192,64-192H66.5s0,115,64,192a57.59,57.59,0,0,0,6.33,7.67V274H114.5v16h64V274H156.17Z"/><rect class="cls-3" x="82.5" y="290" width="128" height="16"/><rect class="cls-4" x="75.2" y="306" width="142.33" height="16"/><line class="cls-1" x1="82.5" y1="290" x2="210.5" y2="290"/><line class="cls-1" x1="75.2" y1="306" x2="217.53" y2="306"/><path class="cls-5" d="M195.58,98a49,49,0,1,1-49-49A49,49,0,0,1,195.58,98Z"/><path class="cls-1" d="M181.6,98a35,35,0,1,1-35-35A35,35,0,0,1,181.6,98Z"/><line class="cls-1" x1="138.5" y1="81.87" x2="154.5" y2="81.87"/><line class="cls-1" x1="146.5" y1="82.37" x2="146.5" y2="113.87"/><line class="cls-1" x1="138.5" y1="113.87" x2="154.5" y2="113.87"/><rect class="cls-6" x="66.5" y="11" width="160" height="7"/></g></g></g></g></svg>