<svg xmlns="http://www.w3.org/2000/svg" viewBox="0 0 333.13 320.9"><defs><style>.cls-1{fill:#cd8198;}.cls-2{fill:#b74a6c;}.cls-3{fill:#fff;}.cls-4{fill:none;stroke:#3f1b71;stroke-miterlimit:10;stroke-width:4px;}.cls-5{fill:#e6c1cd;}.cls-6{fill:#d799ac;}</style></defs><title>Asset 8</title><g id="Layer_2" data-name="Layer 2"><g id="icons"><g id="_15._Startup" data-name="15. Startup"><g id="_15-funding" data-name="15-funding"><path class="cls-1" d="M210.52,8.09v124.5H109.84V8.09a159.92,159.92,0,1,0,100.68,0Z"/><path class="cls-2" d="M210.52,132.59V8.09a160.67,160.67,0,0,0-100.68,0v124.5Z"/><path class="cls-3" d="M270.59,218c-5.36-7.93-17.37-17.38-44.16-17.38h-77.3a15.5,15.5,0,0,0-1.08,31v0h54.56c.7.05,3.68.45,3.68,3.62s-4,4.42-4.83,4.63H152.85c-11.83-4.51-27.7-11.83-36.91-21.3-16.67-17.15-26.22-26.27-27-27-3-3.27-11-7.41-20.25-1-6.32-6.29-9.91-9.72-10.37-10.16-3.11-3.36-11.4-7.64-21.06-.43-3.43-3.32-11.58-7-21,.25-5.39,4.16-6.3,8.9-5.86,12.6A22.27,22.27,0,0,0,6,195.51c-3.52,2.72-5.5,6-5.89,9.64-.33,3.08.35,8,5.46,14.1l.11.13c1.25,1.49,45.51,50.91,48.46,54.2,1.11,1.6,10.71,14.27,36.58,14.27H192.43c.11,0,10.85.07,15.7,6a175.2,175.2,0,0,1,10.44,15c1.7,2.61,3.36,5.24,5.05,7.85a7.66,7.66,0,0,0,3,3l106.55.18C330.83,316.2,276.79,227.16,270.59,218Z"/><path class="cls-4" d="M107.18,241.85s-26.41-15.07-43.91-33.07-27-27-27-27-7.75-8.5-18.75,0c-5.11,3.95-5.74,8.44-4.83,12.27"/><path class="cls-4" d="M127.8,241.85s-26.41-15.07-43.91-33.07-27-27-27-27-7.75-8.5-18.75,0"/><path class="cls-4" d="M152.49,241.85c-12.73-4.83-28.61-12.26-38-21.91-17.5-18-27-27-27-27s-7.75-8.5-18.75,0"/><path class="cls-4" d="M331.43,319.6s-56.25-91.25-62.5-100.5-19-16.5-42.5-16.5H149.68l-.14,0-.41,0a13.5,13.5,0,0,0,0,27l.54,0v0h53s5.62.25,5.62,5.62-6.62,6.63-6.62,6.63h-118s-13.25.25-30.75-17.75-27-27-27-27-7.75-8.5-18.75,0-1.25,19.5,0,21,48.5,54.25,48.5,54.25,8.75,13.5,35,13.5H192.43s11.75,0,17.25,6.75,18.25,27.25,18.25,27.25"/><path class="cls-5" d="M209.22,132.05a48.64,48.64,0,1,1-48.64-48.64A48.63,48.63,0,0,1,209.22,132.05Z"/><path class="cls-5" d="M210.52,132.05a49.94,49.94,0,1,1-49.94-49.93A49.94,49.94,0,0,1,210.52,132.05Z"/><path class="cls-6" d="M200.1,132.05a39.52,39.52,0,1,1-39.52-39.51A39.52,39.52,0,0,1,200.1,132.05Z"/><path class="cls-5" d="M193.42,132.05a32.84,32.84,0,1,1-32.84-32.83A32.84,32.84,0,0,1,193.42,132.05Z"/><line class="cls-4" x1="160.18" y1="175.42" x2="160.18" y2="182.92"/><line class="cls-4" x1="160.18" y1="82.25" x2="160.18" y2="89.75"/><line class="cls-4" x1="203.02" y1="132.59" x2="210.52" y2="132.59"/><line class="cls-4" x1="109.84" y1="132.59" x2="117.34" y2="132.59"/><line class="cls-4" x1="190.47" y1="162.88" x2="195.77" y2="168.18"/><line class="cls-4" x1="124.59" y1="96.99" x2="129.89" y2="102.3"/><line class="cls-4" x1="190.47" y1="102.3" x2="195.77" y2="96.99"/><line class="cls-4" x1="124.59" y1="168.18" x2="129.89" y2="162.88"/><line class="cls-4" x1="144.02" y1="172.26" x2="141.19" y2="179.21"/><line class="cls-4" x1="179.17" y1="85.97" x2="176.34" y2="92.91"/><line class="cls-4" x1="199.85" y1="148.74" x2="206.8" y2="151.57"/><line class="cls-4" x1="113.56" y1="113.6" x2="120.5" y2="116.43"/><line class="cls-4" x1="176.81" y1="172.07" x2="179.72" y2="178.98"/><line class="cls-4" x1="140.64" y1="86.2" x2="143.55" y2="93.11"/><line class="cls-4" x1="199.66" y1="115.96" x2="206.57" y2="113.05"/><line class="cls-4" x1="113.79" y1="152.13" x2="120.7" y2="149.21"/><line class="cls-4" x1="160.18" y1="5.59" x2="160.18" y2="32.75"/><line class="cls-4" x1="121.27" y1="32.75" x2="121.27" y2="59.91"/><line class="cls-4" x1="199.09" y1="46.33" x2="199.09" y2="73.48"/><path class="cls-4" d="M169.44,123.2s0-9.27-9.26-9.27-9.26,9.27-9.26,9.27,0,9.26,9.26,9.26,9.26,9.26,9.26,9.26,0,9.27-9.26,9.27-9.26-9.27-9.26-9.27"/><line class="cls-4" x1="160.18" y1="108.42" x2="160.18" y2="156.5"/></g></g></g></g></svg>