<svg xmlns="http://www.w3.org/2000/svg" xmlns:xlink="http://www.w3.org/1999/xlink" viewBox="0 0 325.85 320"><defs><style>.cls-1,.cls-5,.cls-9{fill:none;}.cls-2{fill:#cd8198;}.cls-3{clip-path:url(#clip-path);}.cls-4{fill:#b74a6c;}.cls-5,.cls-9{stroke:#3f1b71;stroke-miterlimit:10;stroke-width:4px;}.cls-5{stroke-linecap:round;stroke-dasharray:1 17.96;}.cls-6{fill:#d799ac;}.cls-7{fill:#e6c1cd;}.cls-8{fill:#8c76aa;}</style><clipPath id="clip-path"><circle class="cls-1" cx="155.7" cy="159.09" r="139.24" transform="translate(-66.89 156.69) rotate(-45)"/></clipPath></defs><title>Asset 6</title><g id="Layer_2" data-name="Layer 2"><g id="icons"><g id="_12._Gamification" data-name="12. Gamification"><g id="_12-conquer" data-name="12-conquer"><circle class="cls-2" cx="155.7" cy="159.09" r="139.24" transform="translate(-66.89 156.69) rotate(-45)"/><g class="cls-3"><path class="cls-4" d="M279.64,168.5a46.21,46.21,0,0,0-46.16,44.13,26,26,0,0,0-39.41,22.29,26.19,26.19,0,0,0,.74,6.17,11.83,11.83,0,0,0-20.57,8c0,.3,0,.6,0,.89H309.5a46.21,46.21,0,0,0-29.86-81.47Z"/><path class="cls-4" d="M211.32,164.92a12.51,12.51,0,0,0-2.46.24c0-.08,0-.16,0-.24a25.1,25.1,0,1,0-50.2,0c0,.43,0,.86,0,1.28a12.43,12.43,0,0,0-14.37,2.93,27.39,27.39,0,0,0-40.72-30,48.67,48.67,0,1,0-79.72,39.62H223.8a11.38,11.38,0,0,0,.07-1.31A12.55,12.55,0,0,0,211.32,164.92Z"/><path class="cls-4" d="M273.5,116.75a6.84,6.84,0,0,0-2.9.64c0-.36.06-.72.06-1.09a14.43,14.43,0,0,0-14.43-14.42,14.68,14.68,0,0,0-2.83.28c0-.1,0-.19,0-.28a28.86,28.86,0,1,0-57.71,0c0,.49,0,1,0,1.48a14.31,14.31,0,0,0-20.29,13c0,.16,0,.32,0,.48a7.14,7.14,0,0,0-1.24-.12,7,7,0,0,0-7,7H280.49A7,7,0,0,0,273.5,116.75Z"/></g><circle class="cls-5" cx="155.83" cy="160.5" r="153.83" transform="translate(-52.08 243.05) rotate(-67.5)"/><polyline class="cls-6" points="299.83 320 251.83 281.81 235.83 300.9 156.17 186.33 103.39 274.15 86.17 262.71 20.83 320"/><polygon class="cls-7" points="119.36 247.59 128.5 262.71 135.5 257.54 141.17 247.59 151.83 237.65 163.83 246.4 177.75 251.58 187.83 243.62 196 243.62 156.17 186.33 119.36 247.59"/><polygon class="cls-7" points="240 295.93 247.17 300.9 254.17 298.42 262.17 306.48 276.17 308.46 283.83 307.27 251.83 281.81 240 295.93"/><polygon class="cls-7" points="32.6 309.68 59.83 297.32 80.17 295.14 98.17 302.41 107.83 295.14 119.36 291.76 125.77 288.31 86.17 262.71 32.6 309.68"/><polygon class="cls-8" points="257.92 62 156.33 62 156.33 6.67 257.92 6.67 227.02 34.33 257.92 62"/><line class="cls-9" x1="156.11" x2="156.11" y2="189.69"/><polygon class="cls-8" points="139.33 201.22 86.15 201.22 86.15 168.17 139.33 168.17 123.15 184.7 139.33 201.22"/><line class="cls-9" x1="86.03" y1="164.68" x2="86.03" y2="264"/><polygon class="cls-8" points="305.14 236.53 251.95 236.53 251.95 203.47 305.14 203.47 288.96 220 305.14 236.53"/><line class="cls-9" x1="251.83" y1="199" x2="251.83" y2="284.16"/></g></g></g></g></svg>