<svg xmlns="http://www.w3.org/2000/svg" viewBox="0 0 314.88 322.37"><defs><style>.cls-1{fill:#e6c1cd;}.cls-2{fill:#cd8198;}.cls-3{fill:#fff;}.cls-4{fill:#8c76aa;}.cls-5{fill:none;stroke:#3f1b71;stroke-miterlimit:10;stroke-width:4px;}.cls-6{fill:#b74a6c;}</style></defs><title>Asset 14</title><g id="Layer_2" data-name="Layer 2"><g id="icons"><g id="_08._Social_Media" data-name="08. Social Media"><g id="_08-digital-media" data-name="08-digital-media"><polygon class="cls-1" points="0 63.97 151.53 18.37 304 276.77 152.47 322.37 0 63.97"/><polygon class="cls-2" points="37 71.47 143.67 39.37 251 221.27 144.33 253.37 37 71.47"/><polygon class="cls-3" points="84.67 96.83 143.81 79.03 152 92.37 92.85 110.17 84.67 96.83"/><polygon class="cls-4" points="144 176.98 177.67 166.42 185.85 179.75 152.19 190.32 144 176.98"/><line class="cls-5" x1="169.67" y1="123.5" x2="110.52" y2="141.3"/><line class="cls-5" x1="102.34" y1="127.97" x2="161.48" y2="110.17"/><line class="cls-5" x1="177.67" y1="136.57" x2="118.52" y2="154.37"/><line class="cls-5" x1="110.34" y1="141.03" x2="169.48" y2="123.23"/><polygon class="cls-5" points="7.86 47.97 159.39 2.37 311.86 260.77 160.34 306.37 7.86 47.97"/><circle class="cls-5" cx="223" cy="258.37" r="9"/><rect class="cls-2" x="249" y="18.37" width="55" height="55"/><polyline class="cls-5" points="273.82 25.7 273.82 66.37 287.37 66.37 287.37 61.28"/><line class="cls-5" x1="265.63" y1="41.52" x2="281.16" y2="41.52"/><rect class="cls-6" x="7.86" y="237.37" width="77.33" height="77.33"/><polyline class="cls-5" points="37 304.86 37 247.68 56.06 247.68"/><line class="cls-5" x1="38.14" y1="282.62" x2="46.53" y2="282.62"/><rect class="cls-1" x="272" y="130.37" width="32" height="32"/><line class="cls-5" x1="288" y1="157.43" x2="288" y2="141.43"/><line class="cls-5" x1="288" y1="137.93" x2="288" y2="135.3"/><path class="cls-5" d="M42.33,200.39a11.67,11.67,0,1,0-11.66,11.66A11.66,11.66,0,0,0,42.33,200.39Z"/><circle class="cls-5" cx="204.08" cy="40.12" r="5.75"/></g></g></g></g></svg>