<svg xmlns="http://www.w3.org/2000/svg" viewBox="0 0 324 324"><defs><style>.cls-1,.cls-4{fill:none;stroke:#3f1b71;stroke-width:4px;}.cls-1{stroke-linecap:round;stroke-linejoin:round;stroke-dasharray:0.5 40;}.cls-2{fill:#cd8198;}.cls-3{fill:#b74a6c;}.cls-4{stroke-miterlimit:10;}.cls-5{fill:#8c76aa;}.cls-6{fill:#fff;}.cls-7{fill:#3f1b71;}.cls-8{fill:#d799ac;}.cls-9{fill:#e6c1cd;}</style></defs><title>Asset 16</title><g id="Layer_2" data-name="Layer 2"><g id="icons"><g id="_25._Concepts" data-name="25. Concepts"><g id="_25-build-tools" data-name="25-build-tools"><circle class="cls-1" cx="162" cy="162" r="160"/><rect class="cls-2" x="-20.79" y="170.79" width="314.62" height="46.84" transform="translate(-97.34 153.41) rotate(-45)"/><rect class="cls-3" x="77.71" y="206.18" width="46.84" height="46.84" transform="translate(-132.73 138.75) rotate(-45)"/><line class="cls-4" x1="41.84" y1="322" x2="8.72" y2="288.88"/><line class="cls-4" x1="41.73" y1="271.36" x2="228.58" y2="83.77"/><line class="cls-4" x1="57.16" y1="286.79" x2="244.01" y2="99.2"/><rect class="cls-5" x="139.85" y="92.23" width="46.84" height="249.79" transform="translate(-105.71 179.05) rotate(-45)"/><line class="cls-4" x1="235.03" y1="322" x2="268.14" y2="288.88"/><path class="cls-4" d="M238.47,274.4a12.35,12.35,0,1,1-17.47,0A12.34,12.34,0,0,1,238.47,274.4Z"/><path class="cls-6" d="M233.07,279.8a4.72,4.72,0,1,1-6.67,0A4.72,4.72,0,0,1,233.07,279.8Z"/><path class="cls-7" d="M270.54,57.81l-4,28.19L244.21,63.69l26.33-5.88m4.78-5.16-39.09,8.72,33.12,33.12,6-41.84Z"/><path class="cls-8" d="M142,30.3,113.59,1.86,91.52,23.94s11,11,0,22.08-22.08,0-22.08,0L25.28,90.18c-13.14,27.45-19.11,55.4-21.63,78.51-3.43,31.47-.45,54-.45,54L123.94,101.91l1.21-.18s-11-11,0-22.07,22.08,0,22.08,0l22.08-22.07Z"/><path class="cls-9" d="M94.31,63.75a15.06,15.06,0,0,1,25.31-11L142,30.3,113.59,1.86,91.52,23.94s11,11,0,22.08-22.08,0-22.08,0L25.28,90.18c-13.14,27.45-19.11,55.4-21.63,78.51L98.35,74A15,15,0,0,1,94.31,63.75Z"/><rect class="cls-2" x="50.65" y="73.2" width="15.61" height="78.22" transform="translate(-62.3 74.24) rotate(-45)"/><line class="cls-4" x1="113.59" y1="1.86" x2="169.31" y2="57.58"/><polygon class="cls-5" points="299.69 40.19 280.19 46.69 286.69 27.19 299.69 40.19"/><line class="cls-4" x1="50.91" y1="104.77" x2="66" y2="119.86"/><line class="cls-4" x1="50.91" y1="119.86" x2="66" y2="104.77"/></g></g></g></g></svg>