<svg xmlns="http://www.w3.org/2000/svg" viewBox="0 0 325.83 315"><defs><style>.cls-1{fill:#8c76aa;}.cls-2{fill:#b74a6c;}.cls-3{fill:#cd8198;}.cls-4{fill:none;stroke:#3f1b71;stroke-linecap:round;stroke-linejoin:round;stroke-width:4px;}.cls-5{fill:#d799ac;}.cls-6{fill:#e6c1cd;}</style></defs><title>Asset 13</title><g id="Layer_2" data-name="Layer 2"><g id="icons"><g id="_25._Concepts" data-name="25. Concepts"><g id="_25-imagine" data-name="25-imagine"><circle class="cls-1" cx="102.17" cy="25.5" r="15.5"/><polygon class="cls-1" points="278.33 105.48 277.68 144.48 277.67 144.48 277.68 144.98 277.67 145.48 277.68 145.48 278.33 184.48 325.67 216.48 325.67 145.48 325.67 144.48 325.67 73.48 278.33 105.48"/><path class="cls-2" d="M74,181.4c-25.3,0-48.39-8-66-21.08,8.78,30.8,41.57,53.7,80.71,53.7H234.63c39.13,0,71.92-22.9,80.71-53.7-17.59,13.12-40.69,21.08-66,21.08Z"/><path class="cls-3" d="M234.63,73.62H88.71c-45.87,0-83,31.43-83,70.2A60,60,0,0,0,8,160.32c17.59,13.12,40.68,21.08,66,21.08H249.35c25.3,0,48.4-8,66-21.08a60,60,0,0,0,2.33-16.5C317.67,105.05,280.49,73.62,234.63,73.62Z"/><polyline class="cls-4" points="261.6 212.16 229.6 263.82 165.74 263.82 165.53 263.82 101.67 263.82 69.67 212.16"/><line class="cls-4" x1="81.91" y1="231.82" x2="249.42" y2="231.82"/><circle class="cls-5" cx="165.67" cy="247.82" r="6.33"/><circle class="cls-5" cx="127.33" cy="247.82" r="6.33"/><circle class="cls-5" cx="204" cy="247.82" r="6.33"/><line class="cls-4" x1="19" y1="103.82" x2="319" y2="103.82"/><line class="cls-4" x1="21.67" y1="249" x2="105.67" y2="249"/><line class="cls-4" x1="33.67" y1="281" x2="117.67" y2="281"/><line class="cls-4" x1="239.83" y1="281" x2="323.83" y2="281"/><line class="cls-4" x1="71.83" y1="297" x2="155.83" y2="297"/><line class="cls-4" x1="214" y1="313" x2="249.54" y2="313"/><line class="cls-4" x1="2" y1="135.82" x2="319" y2="135.82"/><line class="cls-4" x1="38.33" y1="87.82" x2="319" y2="87.82"/><line class="cls-4" x1="8.56" y1="119.82" x2="319" y2="119.82"/><path class="cls-4" d="M259.67,21a17.65,17.65,0,0,0-3.52.36,26.66,26.66,0,0,0-52.24,5.4,15.16,15.16,0,1,0-7.08,28.57h62.84a17.17,17.17,0,0,0,0-34.33Z"/><path class="cls-6" d="M54.16,44.41a11.3,11.3,0,0,0-2.19.22A16.57,16.57,0,0,0,19.5,48a9.43,9.43,0,1,0-4.4,17.76H54.16a10.67,10.67,0,0,0,0-21.34Z"/></g></g></g></g></svg>