<svg xmlns="http://www.w3.org/2000/svg" viewBox="0 0 315.77 322"><defs><style>.cls-1{fill:#d8d8d8;}.cls-2{fill:#8c76aa;}.cls-3{fill:none;stroke:#3f1b71;stroke-miterlimit:10;stroke-width:4px;}.cls-4{fill:#cd8198;}</style></defs><title>Asset 17</title><g id="Layer_2" data-name="Layer 2"><g id="icons"><g id="_03._Management" data-name="03. Management"><g id="_03-employees" data-name="03-employees"><path class="cls-1" d="M307.46,145.85A101.8,101.8,0,0,0,153.81,23.42a144.89,144.89,0,0,0-12.87,9.92A101.83,101.83,0,0,1,226,175.11h0c-17.11,39.16-22.34,48.27-29.23,58.34L212.27,322H301L278.23,204.2c6.89-10.08,12.12-19.19,29.23-58.35Z"/><path class="cls-2" d="M153.81,236.72H102.24l-2.71-65-18.1-2.95,28.95-51.5s-3.16-25.33,5.88-47.92c4.07-10.14,8.49-21.87,24.68-36-2.77-.23-5.56-.35-8.39-.35A101.3,101.3,0,0,0,72.38,52.68C45.32,71.34,39.81,86.15,34.83,98.57c-9,22.6-5.88,47.93-5.88,47.93L0,198l18.1,2.94,2.71,65H72.38l3.48,56h88.71Z"/><line class="cls-3" x1="244.51" y1="116.53" x2="285.01" y2="116.53"/><line class="cls-3" x1="244.51" y1="132.86" x2="284.92" y2="132.86"/><line class="cls-3" x1="244.51" y1="148.53" x2="313.57" y2="148.53"/><line class="cls-3" x1="244.51" y1="164.86" x2="313.48" y2="164.86"/><rect class="cls-3" x="301.25" y="116.48" width="12.23" height="16.38"/><line class="cls-3" x1="244.51" y1="196.86" x2="313.37" y2="196.86"/><line class="cls-3" x1="244.51" y1="212.86" x2="313.37" y2="212.86"/><line class="cls-3" x1="244.51" y1="228.86" x2="313.37" y2="228.86"/><line class="cls-3" x1="244.51" y1="244.86" x2="313.37" y2="244.86"/><line class="cls-3" x1="244.51" y1="260.86" x2="313.37" y2="260.86"/><path class="cls-4" d="M296.79,292.86a10.66,10.66,0,1,1-10.65-10.66A10.65,10.65,0,0,1,296.79,292.86Z"/><line class="cls-3" x1="289.13" y1="292.86" x2="313.37" y2="292.86"/><line class="cls-3" x1="1.48" y1="2.05" x2="41.98" y2="2.05"/><line class="cls-3" x1="1.48" y1="18.38" x2="41.89" y2="18.38"/><line class="cls-3" x1="1.48" y1="34.05" x2="70.54" y2="34.05"/><line class="cls-3" x1="1.48" y1="50.38" x2="70.45" y2="50.38"/><rect class="cls-3" x="58.22" y="2" width="12.23" height="16.38"/><line class="cls-3" x1="1.48" y1="82.38" x2="70.34" y2="82.38"/><line class="cls-3" x1="1.48" y1="98.38" x2="70.34" y2="98.38"/><line class="cls-3" x1="1.48" y1="114.38" x2="70.34" y2="114.38"/><line class="cls-3" x1="1.48" y1="130.38" x2="70.34" y2="130.38"/><line class="cls-3" x1="1.48" y1="146.38" x2="70.34" y2="146.38"/><path class="cls-4" d="M53.76,178.38a10.66,10.66,0,1,1-10.65-10.66A10.66,10.66,0,0,1,53.76,178.38Z"/><line class="cls-3" x1="46.1" y1="178.38" x2="70.34" y2="178.38"/></g></g></g></g></svg>