<svg xmlns="http://www.w3.org/2000/svg" viewBox="0 0 284.17 322.71"><defs><style>.cls-1{fill:#e6c1cd;}.cls-2{fill:#d799ac;}.cls-3{fill:#8c76aa;}.cls-4,.cls-6{fill:none;stroke:#3f1b71;stroke-miterlimit:10;stroke-width:4px;}.cls-5{fill:#fff;}.cls-6{stroke-linecap:round;stroke-dasharray:0.99 17.85;}</style></defs><title>Asset 1</title><g id="Layer_2" data-name="Layer 2"><g id="icons"><g id="_12._Gamification" data-name="12. Gamification"><g id="_12-motivation" data-name="12-motivation"><polygon class="cls-1" points="92.01 147.68 51.95 309.36 85.58 289.08 105.85 322.71 145.9 161.03 92.01 147.68"/><polygon class="cls-2" points="193.16 147.68 233.22 309.36 199.6 289.08 179.33 322.71 139.27 161.03 193.16 147.68"/><polygon class="cls-3" points="244.66 162.79 265.36 142.09 245.16 121.89 256.24 95.56 229.26 84.2 229.25 54.92 200.69 54.92 189.91 28.46 162.79 39.51 142.09 18.81 121.89 39.01 95.56 27.93 84.2 54.92 54.92 54.92 54.92 83.48 28.46 94.27 39.52 121.38 18.81 142.09 39.01 162.28 27.93 188.62 54.92 199.97 54.92 229.25 83.48 229.26 94.27 255.71 121.38 244.66 142.09 265.36 162.28 245.16 188.62 256.24 199.97 229.26 229.25 229.26 229.25 200.69 255.71 189.91 244.66 162.79"/><polygon class="cls-4" points="257.96 165.48 281.35 142.09 258.53 119.27 271.04 89.52 240.56 76.69 240.56 43.62 208.29 43.62 196.11 13.73 165.48 26.22 142.09 2.83 119.27 25.65 89.52 13.13 76.69 43.62 43.62 43.62 43.62 75.89 13.73 88.07 26.22 118.7 2.83 142.09 25.65 164.91 13.13 194.65 43.62 207.48 43.62 240.56 75.89 240.56 88.07 270.44 118.7 257.95 142.09 281.34 164.91 258.53 194.65 271.04 207.48 240.56 240.56 240.56 240.56 208.29 270.44 196.11 257.96 165.48"/><path class="cls-5" d="M235,141.67a92.94,92.94,0,1,1-92.93-92.94A92.93,92.93,0,0,1,235,141.67Z"/><circle class="cls-3" cx="142.09" cy="141.67" r="86.77"/><path class="cls-2" d="M184.41,141.67a42.33,42.33,0,1,1-42.32-42.33A42.32,42.32,0,0,1,184.41,141.67Z"/><path class="cls-1" d="M112.16,171.59A42.32,42.32,0,1,1,172,111.74"/><path class="cls-6" d="M211.07,141.67a69,69,0,1,1-69-69A69,69,0,0,1,211.07,141.67Z"/></g></g></g></g></svg>