<svg xmlns="http://www.w3.org/2000/svg" viewBox="0 0 320 324.62"><defs><style>.cls-1{fill:#e6c1cd;}.cls-2{fill:#8c76aa;}.cls-3{fill:#f8f8f8;}.cls-3,.cls-5{stroke:#3f1b71;stroke-miterlimit:10;stroke-width:4px;}.cls-4{fill:#cd8198;}.cls-5{fill:none;}.cls-6{fill:#fff;}</style></defs><title>Asset 21</title><g id="Layer_2" data-name="Layer 2"><g id="icons"><g id="_17._Digital_Marketing" data-name="17. Digital Marketing"><g id="_17-social-campaign" data-name="17-social-campaign"><rect class="cls-1" y="175.75" width="43.98" height="138.01"/><polygon class="cls-2" points="128 2 320 2 320 111.71 225.69 111.71 199.43 145.43 199.43 111.71 128 111.71 128 2"/><rect class="cls-3" x="43.98" y="166.9" width="35.88" height="155.72"/><path class="cls-3" d="M292.52,217a18.75,18.75,0,0,0-18.74-18.75c-.52,0-1,0-1.54.08-.06-.52-.13-1-.2-1.56a18.75,18.75,0,0,0-7.31-36H176l10.19-77.34a16,16,0,0,0-31.7-3.08h0l-8.8,31.83-25.07,36.66h0a47.36,47.36,0,0,0-9.1,30H79.85l.65,131.87H255a18.72,18.72,0,0,0,11.41-33.59c.35-1.29.7-2.61,1.05-3.94a18.73,18.73,0,0,0,6.19-36.08c0-.46.07-.92.1-1.37A18.75,18.75,0,0,0,292.52,217Z"/><polygon class="cls-4" points="112 66 0 66 0 130 55.01 130 70.33 149.67 70.33 130 112 130 112 66"/><circle class="cls-5" cx="99.33" cy="18" r="16"/><circle class="cls-5" cx="101.42" cy="114" r="16"/><circle class="cls-5" cx="69.42" cy="66" r="16"/><line class="cls-5" x1="85.42" y1="66" x2="128" y2="66"/><line class="cls-5" x1="116.19" y1="107.83" x2="128" y2="100.67"/><line class="cls-5" x1="114.23" y1="23.83" x2="128" y2="35.67"/><path class="cls-6" d="M288.66,41.5a8.17,8.17,0,1,1-8.16-8.17A8.16,8.16,0,0,1,288.66,41.5Z"/><path class="cls-5" d="M264.66,73.71a8.17,8.17,0,1,1-8.16-8.16A8.16,8.16,0,0,1,264.66,73.71Z"/><path class="cls-5" d="M312.66,73.71a8.17,8.17,0,1,1-8.16-8.16A8.16,8.16,0,0,1,312.66,73.71Z"/><path class="cls-5" d="M235.17,105.83A8.17,8.17,0,1,1,227,97.67,8.17,8.17,0,0,1,235.17,105.83Z"/><path class="cls-5" d="M293.17,105.83A8.17,8.17,0,1,1,285,97.67,8.17,8.17,0,0,1,293.17,105.83Z"/><path class="cls-5" d="M264.17,105.83A8.17,8.17,0,1,1,256,97.67,8.17,8.17,0,0,1,264.17,105.83Z"/><path class="cls-4" d="M281.17,137.26A8.17,8.17,0,1,1,273,129.1,8.17,8.17,0,0,1,281.17,137.26Z"/><path class="cls-1" d="M247.17,137.26A8.17,8.17,0,1,1,239,129.1,8.17,8.17,0,0,1,247.17,137.26Z"/><line class="cls-5" x1="264.66" y1="73.71" x2="296.33" y2="73.71"/><line class="cls-5" x1="280.5" y1="73.71" x2="280.5" y2="49.67"/><line class="cls-5" x1="256.5" y1="81.88" x2="256.5" y2="97.67"/><line class="cls-5" x1="247.83" y1="105.83" x2="235.17" y2="105.83"/><line class="cls-5" x1="264.17" y1="105.83" x2="276.83" y2="105.83"/><line class="cls-5" x1="247.17" y1="137.26" x2="264.83" y2="137.26"/><line class="cls-5" x1="256" y1="137.26" x2="256" y2="114"/></g></g></g></g></svg>