<svg xmlns="http://www.w3.org/2000/svg" viewBox="0 0 324 322"><defs><style>.cls-1{fill:#cd8198;}.cls-2{fill:#fff;}.cls-3,.cls-7{fill:none;stroke:#3f1b71;stroke-width:4px;}.cls-3{stroke-miterlimit:10;}.cls-4{fill:#8c76aa;}.cls-5{fill:#d799ac;}.cls-6{fill:#b74a6c;}.cls-7{stroke-linecap:round;stroke-linejoin:round;stroke-dasharray:1 16;}</style></defs><title>Asset 11</title><g id="Layer_2" data-name="Layer 2"><g id="icons"><g id="_17._Digital_Marketing" data-name="17. Digital Marketing"><g id="_17-click-sales" data-name="17-click-sales"><circle class="cls-1" cx="162" cy="144" r="128"/><path class="cls-2" d="M156.3,251.54H167.7A17.45,17.45,0,0,1,185.15,269v33.56A17.46,17.46,0,0,1,167.7,320H156.3a17.45,17.45,0,0,1-17.45-17.45V269a17.45,17.45,0,0,1,17.45-17.45Z"/><path class="cls-3" d="M156.3,251.54H167.7A17.45,17.45,0,0,1,185.15,269v33.56A17.46,17.46,0,0,1,167.7,320H156.3a17.45,17.45,0,0,1-17.45-17.45V269a17.45,17.45,0,0,1,17.45-17.45Z"/><circle class="cls-4" cx="162" cy="268.87" r="6"/><path class="cls-3" d="M161.83,251.54V240s0-15.92,15.92-15.92h95.07s16.63-1.17,16.63-16.63S274,192,274,192H194.33"/><path class="cls-3" d="M130,192H18.12S2,191.75,2,175.88s16-16,16-16H66s15.94,0,15.94-15.94S66,128,66,128s-16,0-16-16S66,96,66,96H306s16,0,16-16-16-16-16-16H210s-16,0-16-16,16-16,16-16h48s16,0,16-16V0"/><circle class="cls-2" cx="162" cy="144" r="64"/><path class="cls-3" d="M178,112H161.86s-16.19-.67-16.19,15.67S162,144,162,144s16,0,16,16-16.17,16-16.17,16H145.67"/><line class="cls-3" x1="162" y1="104.33" x2="162" y2="183.67"/><circle class="cls-4" cx="26" cy="56" r="8"/><circle class="cls-5" cx="290" cy="272" r="12"/><circle class="cls-6" cx="34" cy="256" r="4.5"/><ellipse class="cls-7" cx="163" cy="262.95" rx="43" ry="42.95"/></g></g></g></g></svg>