<svg xmlns="http://www.w3.org/2000/svg" viewBox="0 0 323.88 323.23"><defs><style>.cls-1{fill:#e6c1cd;}.cls-2{fill:#8c76aa;}.cls-3{fill:none;}.cls-3,.cls-5{stroke:#3f1b71;stroke-linejoin:round;stroke-width:4px;}.cls-4{fill:#cd8198;}.cls-5{fill:#fff;}</style></defs><title>Asset 25</title><g id="Layer_2" data-name="Layer 2"><g id="icons"><g id="_19._Accounting" data-name="19. Accounting"><g id="_19-law-balance" data-name="19-law-balance"><path class="cls-1" d="M161.8,310.88a228.54,228.54,0,0,0,129.56-40H32.25A228.53,228.53,0,0,0,161.8,310.88Z"/><path class="cls-2" d="M88.32,211a43.19,43.19,0,0,1-86.38,0"/><polyline class="cls-3" points="1.94 211 45.13 42.22 88.32 211"/><path class="cls-4" d="M321.94,178.79a43.19,43.19,0,0,1-86.38,0"/><polyline class="cls-3" points="235.56 178.79 278.75 8.25 321.94 178.79"/><line class="cls-3" x1="2" y1="48.49" x2="321.88" y2="1.98"/><circle class="cls-5" cx="161.8" cy="25.23" r="14.96" transform="translate(100.08 176.9) rotate(-76.72)"/><path class="cls-3" d="M201.12,92.54a55.6,55.6,0,0,1-78.64,0"/><line class="cls-3" x1="161.8" y1="10.27" x2="161.8" y2="1.23"/><polygon class="cls-3" points="113.94 321.23 161.8 40.19 209.81 321.23 113.94 321.23"/><line class="cls-3" x1="2" y1="241.23" x2="32.25" y2="241.23"/><line class="cls-3" x1="18.81" y1="225.23" x2="49.06" y2="225.23"/><line class="cls-3" x1="291.36" y1="209.23" x2="321.61" y2="209.23"/><line class="cls-3" x1="266.36" y1="225.23" x2="296.61" y2="225.23"/></g></g></g></g></svg>