<svg xmlns="http://www.w3.org/2000/svg" viewBox="0 0 260 356"><defs><style>.cls-1{fill:#8c76aa;}.cls-2{fill:#fff;}.cls-3{fill:none;stroke:#3a3a3a;stroke-linecap:round;stroke-linejoin:round;stroke-width:4px;}</style></defs><title>Asset 24</title><g id="Layer_2" data-name="Layer 2"><g id="icons"><g id="_13._Business_Elements" data-name="13. Business Elements"><g id="_13-cash-flow" data-name="13-cash-flow"><path class="cls-1" d="M258,178A128,128,0,1,1,130,50,128,128,0,0,1,258,178Z"/><path class="cls-2" d="M130,66a112,112,0,0,1,0,224"/><path class="cls-3" d="M98,210a32,32,0,1,0,32-32h0a32,32,0,1,1,32-32"/><line class="cls-3" x1="129.5" y1="98" x2="129.5" y2="258"/><line class="cls-3" x1="130" y1="50" x2="130" y2="57.5"/><line class="cls-3" x1="130" y1="298.5" x2="130" y2="306"/><line class="cls-3" x1="2" y1="178" x2="9.5" y2="178"/><line class="cls-3" x1="250.5" y1="178" x2="258" y2="178"/><line class="cls-3" x1="39.49" y1="87.49" x2="44.79" y2="92.79"/><line class="cls-3" x1="215.21" y1="263.21" x2="220.51" y2="268.51"/><line class="cls-3" x1="39.49" y1="268.51" x2="44.79" y2="263.21"/><line class="cls-3" x1="215.21" y1="92.79" x2="220.51" y2="87.49"/><line class="cls-3" x1="130" y1="298.5" x2="130" y2="306"/><line class="cls-3" x1="2" y1="178" x2="9.5" y2="178"/><line class="cls-3" x1="250.5" y1="178" x2="258" y2="178"/><line class="cls-3" x1="39.49" y1="87.49" x2="44.79" y2="92.79"/><line class="cls-3" x1="215.21" y1="263.21" x2="220.51" y2="268.51"/><line class="cls-3" x1="39.49" y1="268.51" x2="44.79" y2="263.21"/><line class="cls-3" x1="215.21" y1="92.79" x2="220.51" y2="87.49"/><line class="cls-3" x1="176.77" y1="58.85" x2="174.03" y2="65.83"/><line class="cls-3" x1="85.96" y1="290.17" x2="83.22" y2="297.15"/><line class="cls-3" x1="10.85" y1="131.22" x2="17.83" y2="133.96"/><line class="cls-3" x1="242.17" y1="222.03" x2="249.15" y2="224.77"/><line class="cls-3" x1="78.83" y1="60.67" x2="81.82" y2="67.55"/><line class="cls-3" x1="178.18" y1="288.45" x2="181.18" y2="295.33"/><line class="cls-3" x1="12.68" y1="229.18" x2="19.55" y2="226.18"/><line class="cls-3" x1="240.45" y1="129.82" x2="247.33" y2="126.82"/><line class="cls-3" x1="155.24" y1="52.51" x2="153.76" y2="59.87"/><line class="cls-3" x1="106.23" y1="296.13" x2="104.76" y2="303.49"/><line class="cls-3" x1="4.51" y1="152.75" x2="11.87" y2="154.23"/><line class="cls-3" x1="248.13" y1="201.76" x2="255.49" y2="203.24"/><line class="cls-3" x1="59.12" y1="71.42" x2="63.27" y2="77.66"/><line class="cls-3" x1="196.73" y1="278.34" x2="200.88" y2="284.58"/><line class="cls-3" x1="23.42" y1="248.88" x2="29.66" y2="244.73"/><line class="cls-3" x1="230.34" y1="111.27" x2="236.58" y2="107.12"/><line class="cls-3" x1="106.23" y1="296.13" x2="104.76" y2="303.49"/><line class="cls-3" x1="4.51" y1="152.75" x2="11.87" y2="154.23"/><line class="cls-3" x1="248.13" y1="201.76" x2="255.49" y2="203.24"/><line class="cls-3" x1="59.12" y1="71.42" x2="63.27" y2="77.66"/><line class="cls-3" x1="196.73" y1="278.34" x2="200.88" y2="284.58"/><line class="cls-3" x1="23.42" y1="248.88" x2="29.66" y2="244.73"/><line class="cls-3" x1="230.34" y1="111.27" x2="236.58" y2="107.12"/><line class="cls-3" x1="199.36" y1="70.42" x2="195.29" y2="76.72"/><line class="cls-3" x1="64.71" y1="279.28" x2="60.65" y2="285.58"/><line class="cls-3" x1="22.42" y1="108.65" x2="28.72" y2="112.71"/><line class="cls-3" x1="231.28" y1="243.29" x2="237.58" y2="247.35"/><line class="cls-3" x1="102.97" y1="52.89" x2="104.55" y2="60.22"/><line class="cls-3" x1="155.45" y1="295.78" x2="157.03" y2="303.11"/><line class="cls-3" x1="4.89" y1="205.03" x2="12.22" y2="203.45"/><line class="cls-3" x1="247.78" y1="152.55" x2="255.11" y2="150.97"/><path class="cls-3" d="M253.37,52.49a176,176,0,0,0-248,1.24"/><path class="cls-3" d="M5.37,302.26a176,176,0,0,0,248,1.25"/><polyline class="cls-3" points="20.1 53.73 5.37 53.73 5.37 53.4 5.37 38.66"/><polyline class="cls-3" points="238.63 303.51 253.37 303.51 253.37 303.85 253.37 318.58"/></g></g></g></g></svg>