<svg xmlns="http://www.w3.org/2000/svg" viewBox="0 0 268.1 317.25"><defs><style>.cls-1{fill:none;stroke:#3f1b71;stroke-linejoin:round;stroke-width:4px;}.cls-2{fill:#cd8198;}.cls-3{fill:#8c76aa;}.cls-4{fill:#e6c1cd;}.cls-5{fill:#b74a6c;}.cls-6{fill:#fff;}.cls-7{fill:#3f1b71;}</style></defs><title>Asset 15</title><g id="Layer_2" data-name="Layer 2"><g id="icons"><g id="_14._Metaphors" data-name="14. Metaphors"><g id="_14-creativity" data-name="14-creativity"><line class="cls-1" x1="18.28" y1="120.54" x2="5.25" y2="86.99"/><line class="cls-1" x1="31.32" y1="154.1" x2="18.28" y2="120.54"/><path class="cls-2" d="M207.17,149.25h0a80,80,0,1,0-146.65,0h0s1.34,2.91,13,32,12,47.33,12,47.33l94.67.67c0-21.37,16.9-59,24-73.79,1.05-1.93,2-3.92,2.9-5.94Z"/><rect class="cls-3" x="117.83" y="309.25" width="32" height="8"/><polygon class="cls-4" points="85.83 229.25 85.83 293.25 101.83 309.25 165.83 309.25 180.83 293.25 180.83 229.25 85.83 229.25"/><line class="cls-1" x1="81.83" y1="229.25" x2="184.83" y2="229.25"/><line class="cls-1" x1="81.83" y1="245.25" x2="184.83" y2="245.25"/><line class="cls-1" x1="81.83" y1="261.25" x2="184.83" y2="261.25"/><line class="cls-1" x1="81.83" y1="277.25" x2="184.83" y2="277.25"/><line class="cls-1" x1="81.83" y1="293.25" x2="184.83" y2="293.25"/><line class="cls-1" x1="98.83" y1="309.25" x2="167.83" y2="309.25"/><path class="cls-5" d="M181.91,121a48.58,48.58,0,1,1-48.58-48.58A48.58,48.58,0,0,1,181.91,121Z"/><path class="cls-6" d="M164.58,121a31.25,31.25,0,1,1-31.25-31.25A31.25,31.25,0,0,1,164.58,121Z"/><rect class="cls-1" x="117.83" y="133.25" width="32" height="95.33"/><polygon class="cls-1" points="133.83 101.25 117.83 133.25 149.83 133.25 133.83 101.25"/><line class="cls-1" x1="133.83" y1="133.25" x2="133.83" y2="228.58"/><line class="cls-1" x1="125.46" y1="133.25" x2="125.46" y2="228.58"/><line class="cls-1" x1="141.71" y1="133.25" x2="141.71" y2="228.58"/><polyline class="cls-3" points="133.83 101.25 141.83 117.25 125.83 117.25 133.83 101.25"/><polygon class="cls-1" points="125.83 117.25 133.83 101.25 141.83 117.25 125.83 117.25"/><path class="cls-1" d="M17.58,121a115.75,115.75,0,0,1,231.5,0"/><circle class="cls-2" cx="17.58" cy="121" r="5.25"/><path class="cls-7" d="M10.06,89.1a5.25,5.25,0,1,1-2.69-6.92A5.24,5.24,0,0,1,10.06,89.1Z"/><path class="cls-7" d="M37.6,160a5.25,5.25,0,1,1-2.69-6.92A5.24,5.24,0,0,1,37.6,160Z"/><line class="cls-1" x1="249.82" y1="120.54" x2="262.85" y2="86.99"/><line class="cls-1" x1="236.79" y1="154.1" x2="249.82" y2="120.54"/><path class="cls-7" d="M258.05,89.1a5.25,5.25,0,1,0,2.69-6.92A5.24,5.24,0,0,0,258.05,89.1Z"/><path class="cls-7" d="M230.51,160a5.25,5.25,0,1,0,2.69-6.92A5.24,5.24,0,0,0,230.51,160Z"/><line class="cls-1" x1="135.37" y1="5.25" x2="224.58" y2="5.25"/><line class="cls-1" x1="47.15" y1="5.25" x2="135.37" y2="5.25"/><path class="cls-7" d="M220.87,1.54a5.25,5.25,0,1,0,7.43,0A5.24,5.24,0,0,0,220.87,1.54Z"/><path class="cls-7" d="M39.37,1.54a5.25,5.25,0,1,0,7.43,0A5.24,5.24,0,0,0,39.37,1.54Z"/><circle class="cls-2" cx="249.08" cy="121" r="5.25"/><circle class="cls-3" cx="133.33" cy="5.25" r="5.25"/></g></g></g></g></svg>