<svg xmlns="http://www.w3.org/2000/svg" viewBox="0 0 324.14 322"><defs><style>.cls-1{fill:#e6c1cd;}.cls-2{fill:#fff;}.cls-10,.cls-3,.cls-4,.cls-7{fill:none;stroke:#3f1b71;stroke-miterlimit:10;stroke-width:4px;}.cls-3,.cls-4,.cls-7{stroke-linecap:round;}.cls-3{stroke-dasharray:0.99 13.8;}.cls-4{stroke-dasharray:0.96 13.4;}.cls-5{fill:#8c76aa;}.cls-6{fill:#b74a6c;}.cls-7{stroke-dasharray:1.02 14.34;}.cls-8{fill:#d799ac;}.cls-9{fill:#cd8198;}</style></defs><title>Asset 12</title><g id="Layer_2" data-name="Layer 2"><g id="icons"><g id="_27._Learning" data-name="27. Learning"><g id="_27-brain-process" data-name="27-brain-process"><path class="cls-1" d="M284,159.07A112.51,112.51,0,0,0,114.13,23.76c-29.91,20.63-36,37-41.49,50.72-10,25-6.5,53-6.5,53l-32,56.92,20,3.24,3,71.88h57L125.38,322H276.14l-24.5-98.44c7.63-11.14,13.4-21.2,32.31-64.49Z"/><circle class="cls-2" cx="180.64" cy="111.5" r="72"/><circle class="cls-3" cx="180.64" cy="111.5" r="80"/><circle class="cls-4" cx="18" cy="18" r="16"/><circle class="cls-5" cx="30.89" cy="102.75" r="4.75"/><circle class="cls-6" cx="299.47" cy="278.59" r="11.41"/><circle class="cls-7" cx="287.89" cy="37.75" r="34.25"/><circle class="cls-8" cx="287.89" cy="37.75" r="11.59"/><path class="cls-9" d="M227,118.13V104.87H216.29A36.17,36.17,0,0,0,210.54,91l7.54-7.54-9.38-9.38-7.54,7.55a36.08,36.08,0,0,0-13.89-5.76V65.17H174V75.84a36.08,36.08,0,0,0-13.89,5.76l-7.54-7.55-9.38,9.38L150.73,91A36.06,36.06,0,0,0,145,104.87H134.31v13.26H145A36.06,36.06,0,0,0,150.73,132l-7.54,7.55,9.38,9.38,7.54-7.55A36.08,36.08,0,0,0,174,147.16v10.67h13.27V147.16a36.08,36.08,0,0,0,13.89-5.76L208.7,149l9.38-9.38L210.54,132a36.17,36.17,0,0,0,5.75-13.9Z"/><circle class="cls-2" cx="180.64" cy="111.5" r="16.29" transform="translate(8.5 235.72) rotate(-67.5)"/><circle class="cls-10" cx="180.64" cy="111.5" r="7.75"/></g></g></g></g></svg>