<?xml version="1.0" encoding="iso-8859-1"?>
<!-- Generator: Adobe Illustrator 16.0.0, SVG Export Plug-In . SVG Version: 6.00 Build 0)  -->
<!DOCTYPE svg PUBLIC "-//W3C//DTD SVG 1.1//EN" "http://www.w3.org/Graphics/SVG/1.1/DTD/svg11.dtd">
<svg version="1.1" xmlns="http://www.w3.org/2000/svg" xmlns:xlink="http://www.w3.org/1999/xlink" x="0px" y="0px" width="322px"
	 height="320px" viewBox="0 0 322 320" style="enable-background:new 0 0 322 320;" xml:space="preserve">
<g id="Layer_137">
	<g>
		<rect x="34" y="118.5" style="fill:#3AB1CC;" width="64" height="18"/>
		<rect x="34" y="183" style="fill:#3AB1CC;" width="64" height="18"/>
		<path style="fill:#ED4F3E;" d="M106.75,24c0-4.418-3.582-8-8-8s-24.334,8-24.334,8s19.916,8,24.334,8S106.75,28.418,106.75,24z"/>
		<path style="fill:#ED4F3E;" d="M106.75,48c0-4.418-3.582-8-8-8s-24.334,8-24.334,8s19.916,8,24.334,8S106.75,52.418,106.75,48z"/>
		<path style="fill:#ED4F3E;" d="M106.75,271.25c0-4.418-3.582-8-8-8s-24.334,8-24.334,8s19.916,8,24.334,8
			S106.75,275.668,106.75,271.25z"/>
		<path style="fill:#ED4F3E;" d="M106.75,295.25c0-4.418-3.582-8-8-8s-24.334,8-24.334,8s19.916,8,24.334,8
			S106.75,299.668,106.75,295.25z"/>
		<path style="fill:#D3DBDD;" d="M104.75,32c0,0,52.33,0,63.754,0c11.423,0,16.246-8.25,16.246-8.25s-4.823-8.25-16.246-8.25
			c-11.424,0-63.754,0-63.754,0"/>
		<path style="fill:#D3DBDD;" d="M104.75,56.25c0,0,52.33,0,63.754,0c11.423,0,16.246-8.25,16.246-8.25s-4.823-8.25-16.246-8.25
			c-11.424,0-63.754,0-63.754,0"/>
		<path style="fill:#D3DBDD;" d="M104.75,279.75c0,0,52.33,0,63.754,0c11.423,0,16.246-8.25,16.246-8.25s-4.823-8.25-16.246-8.25
			c-11.424,0-63.754,0-63.754,0"/>
		<path style="fill:#D3DBDD;" d="M104.75,304c0,0,52.33,0,63.754,0c11.423,0,16.246-8.25,16.246-8.25s-4.823-8.25-16.246-8.25
			c-11.424,0-63.754,0-63.754,0"/>
		<polyline style="fill:#3AB1CC;" points="114,127.5 114,0 146,0 210,112 258,127.5 258,192.5 210,208 146,320 114,320 114,192.5 		
			"/>
		<path style="fill:#64CDF2;" d="M50,192.5c0,0,163,0,208,0s64-32.5,64-32.5s-19-32.5-64-32.5s-208,0-208,0"/>
		<polyline style="fill:#64CDF2;" points="66.333,181.697 12.723,245.695 2,245.695 2,73.805 12.723,73.805 66.333,138.809 		"/>
		<rect x="2" y="128.5" style="fill:none;stroke:#30241C;stroke-width:4;stroke-miterlimit:10;" width="15.754" height="16"/>
		<rect x="2" y="144.5" style="fill:none;stroke:#30241C;stroke-width:4;stroke-miterlimit:10;" width="15.754" height="16"/>
		<rect x="2" y="160.5" style="fill:none;stroke:#30241C;stroke-width:4;stroke-miterlimit:10;" width="15.754" height="16"/>
		<rect x="2" y="176.5" style="fill:none;stroke:#30241C;stroke-width:4;stroke-miterlimit:10;" width="15.754" height="16"/>
		<line style="fill:none;stroke:#30241C;stroke-width:4;stroke-miterlimit:10;" x1="17.754" y1="128.5" x2="25.877" y2="128.5"/>
		<line style="fill:none;stroke:#30241C;stroke-width:4;stroke-miterlimit:10;" x1="17.754" y1="192.5" x2="25.877" y2="192.5"/>
		<line style="fill:none;stroke:#30241C;stroke-width:4;stroke-miterlimit:10;" x1="131" y1="81" x2="98" y2="81"/>
		<line style="fill:none;stroke:#30241C;stroke-width:4;stroke-miterlimit:10;" x1="124.334" y1="96" x2="91.334" y2="96"/>
		<line style="fill:none;stroke:#30241C;stroke-width:4;stroke-miterlimit:10;" x1="217.666" y1="224" x2="184.666" y2="224"/>
		<line style="fill:none;stroke:#30241C;stroke-width:4;stroke-miterlimit:10;" x1="211" y1="239" x2="178" y2="239"/>
		<line style="fill:none;stroke:#30241C;stroke-width:4;stroke-miterlimit:10;" x1="50.666" y1="224" x2="17.666" y2="224"/>
		<path style="fill:none;stroke:#30241C;stroke-width:4;stroke-miterlimit:10;" d="M295.97,160c0-10.4-8.066-18.91-18.283-19.631
			c3.817,5.592,6.052,12.35,6.052,19.631s-2.234,14.039-6.052,19.631C287.903,178.91,295.97,170.398,295.97,160z"/>
		<polyline style="fill:none;stroke:#30241C;stroke-width:4;stroke-miterlimit:10;" points="149.666,133.5 149.666,143.666 
			49,143.666 		"/>
		<polyline style="fill:none;stroke:#30241C;stroke-width:4;stroke-miterlimit:10;" points="149.666,185.916 149.666,176.5 
			149.666,176.5 49,176.5 		"/>
		<g>
			<line style="fill:none;stroke:#30241C;stroke-width:4;stroke-miterlimit:10;" x1="242" y1="32" x2="242" y2="38"/>
			<line style="fill:none;stroke:#30241C;stroke-width:4;stroke-miterlimit:10;" x1="242" y1="48" x2="242" y2="54"/>
			<line style="fill:none;stroke:#30241C;stroke-width:4;stroke-miterlimit:10;" x1="231" y1="43" x2="237" y2="43"/>
			<line style="fill:none;stroke:#30241C;stroke-width:4;stroke-miterlimit:10;" x1="247" y1="43" x2="253" y2="43"/>
		</g>
		<g>
			<line style="fill:none;stroke:#30241C;stroke-width:4;stroke-miterlimit:10;" x1="258" y1="277" x2="258" y2="283"/>
			<line style="fill:none;stroke:#30241C;stroke-width:4;stroke-miterlimit:10;" x1="258" y1="293" x2="258" y2="299"/>
			<line style="fill:none;stroke:#30241C;stroke-width:4;stroke-miterlimit:10;" x1="247" y1="288" x2="253" y2="288"/>
			<line style="fill:none;stroke:#30241C;stroke-width:4;stroke-miterlimit:10;" x1="263" y1="288" x2="269" y2="288"/>
		</g>
		<g>
			<line style="fill:none;stroke:#30241C;stroke-width:4;stroke-miterlimit:10;" x1="34" y1="261" x2="34" y2="267"/>
			<line style="fill:none;stroke:#30241C;stroke-width:4;stroke-miterlimit:10;" x1="34" y1="277" x2="34" y2="283"/>
			<line style="fill:none;stroke:#30241C;stroke-width:4;stroke-miterlimit:10;" x1="23" y1="272" x2="29" y2="272"/>
			<line style="fill:none;stroke:#30241C;stroke-width:4;stroke-miterlimit:10;" x1="39" y1="272" x2="45" y2="272"/>
		</g>
	</g>
</g>
<g id="Layer_1">
</g>
</svg>
