<?xml version="1.0" encoding="iso-8859-1"?>
<!-- Generator: Adobe Illustrator 16.0.0, SVG Export Plug-In . SVG Version: 6.00 Build 0)  -->
<!DOCTYPE svg PUBLIC "-//W3C//DTD SVG 1.1//EN" "http://www.w3.org/Graphics/SVG/1.1/DTD/svg11.dtd">
<svg version="1.1" xmlns="http://www.w3.org/2000/svg" xmlns:xlink="http://www.w3.org/1999/xlink" x="0px" y="0px" width="320px"
	 height="320px" viewBox="0 0 320 320" style="enable-background:new 0 0 320 320;" xml:space="preserve">
<g id="Layer_141">
	<g>
		<rect y="64" style="fill:#D3DBDD;" width="320" height="208"/>
		<rect x="16" y="80" style="fill:#FFFFFF;" width="288" height="144"/>
		<g>
			<path style="fill:#ED4F3E;" d="M304,72V56h-16.676c-1.225-7.291-4.091-14.021-8.208-19.803l11.796-11.796l-11.314-11.313
				l-11.795,11.795c-5.782-4.117-12.512-6.983-19.803-8.207V0h-16v16.676c-7.291,1.224-14.021,4.09-19.803,8.207l-11.795-11.795
				l-11.314,11.313l11.796,11.796c-4.117,5.781-6.983,12.512-8.208,19.803H176v16h16.676c1.225,7.291,4.091,14.02,8.208,19.802
				l-11.796,11.796l11.314,11.313l11.795-11.796c5.782,4.117,12.512,6.984,19.803,8.208V128h16v-16.677
				c7.291-1.224,14.021-4.091,19.803-8.208l11.795,11.796l11.314-11.313l-11.796-11.796c4.117-5.782,6.983-12.511,8.208-19.802H304z
				 M240,98.666c-19.146,0-34.666-15.521-34.666-34.666c0-19.146,15.521-34.667,34.666-34.667S274.666,44.854,274.666,64
				C274.666,83.146,259.146,98.666,240,98.666z"/>
			<circle style="fill:#FFFFFF;" cx="240" cy="64" r="34.667"/>
		</g>
		<path style="fill:#BAC4C6;" d="M201.616,214.893c1.562-4.779,2.672-9.76,3.291-14.893H224v-16h-18.789
			c-0.375-4.563-1.12-9.02-2.241-13.326l17.15-6.85l-5.934-14.858l-16.827,6.72c-2.351-4.74-5.168-9.205-8.389-13.343l12.568-12.569
			l-11.313-11.313l-12.313,12.313c-3.556-3.033-7.382-5.752-11.442-8.119l6.746-15.717l-14.703-6.311l-6.621,15.426
			c-5.087-1.7-10.401-2.896-15.893-3.524V96h-16v16.326c-4.866,0.432-9.602,1.309-14.172,2.586l-6.004-15.033l-14.857,5.934
			l5.976,14.965c-4.917,2.548-9.538,5.584-13.779,9.072l-11.389-11.389l-11.313,11.313l11.449,11.449
			c-3.014,3.732-5.703,7.736-8.001,11.986l-14.971-6.426l-6.312,14.703l15.164,6.508c-1.534,5.135-2.549,10.488-3.002,16.006H32v16
			h17.093c0.569,4.719,1.538,9.314,2.906,13.736l-16.12,6.438L37.407,224h31.579C63.281,214.143,60,202.707,60,190.5
			c0-37.004,29.996-67,67-67s67,29.996,67,67c0,12.207-3.281,23.643-8.985,33.5h33.72l0.638-1.486L201.616,214.893z"/>
		<rect x="112" y="304" style="fill:#D3DBDD;" width="96" height="16"/>
		<line style="fill:none;stroke:#30241C;stroke-width:4;stroke-miterlimit:10;" x1="108" y1="312" x2="212" y2="312"/>
		
			<line style="fill:none;stroke:#30241C;stroke-width:4;stroke-miterlimit:10;" x1="148.334" y1="247.875" x2="171.666" y2="247.875"/>
		<path style="fill:#D3DBDD;" d="M67,190.5c0-33.138,26.863-60,60-60s60,26.862,60,60c0,12.406-3.767,23.932-10.217,33.5h8.231
			c5.704-9.857,8.985-21.293,8.985-33.5c0-37.004-29.996-67-67-67s-67,29.996-67,67c0,12.207,3.281,23.643,8.986,33.5h8.23
			C70.767,214.432,67,202.906,67,190.5z"/>
		<rect x="16" y="80" style="fill:none;stroke:#30241C;stroke-width:4;stroke-miterlimit:10;" width="288" height="144"/>
		<g>
			
				<circle style="fill:none;stroke:#30241C;stroke-width:4;stroke-linecap:round;stroke-miterlimit:10;stroke-dasharray:1.9484,19.4843;" cx="240" cy="62.002" r="58.002"/>
		</g>
		<rect x="127.666" y="272.332" style="fill:#BAC4C6;" width="64.334" height="31.668"/>
		<rect x="128.25" y="144" style="fill:none;stroke:#30241C;stroke-width:4;stroke-miterlimit:10;" width="63.5" height="31.5"/>
		<line style="fill:none;stroke:#ED4F3E;stroke-width:4;stroke-miterlimit:10;" x1="128" y1="192" x2="166" y2="192"/>
		<line style="fill:none;stroke:#64CDF2;stroke-width:4;stroke-miterlimit:10;" x1="166" y1="192" x2="272" y2="192"/>
	</g>
</g>
<g id="Layer_1">
</g>
</svg>
