<?xml version="1.0" encoding="iso-8859-1"?>
<!-- Generator: Adobe Illustrator 16.0.0, SVG Export Plug-In . SVG Version: 6.00 Build 0)  -->
<!DOCTYPE svg PUBLIC "-//W3C//DTD SVG 1.1//EN" "http://www.w3.org/Graphics/SVG/1.1/DTD/svg11.dtd">
<svg version="1.1" xmlns="http://www.w3.org/2000/svg" xmlns:xlink="http://www.w3.org/1999/xlink" x="0px" y="0px"
	 width="317.082px" height="322px" viewBox="0 0 317.082 322" style="enable-background:new 0 0 317.082 322;" xml:space="preserve"
	>
<g id="Layer_143">
	<g>
		<rect x="122.985" y="233.111" style="fill:#ED4F3E;" width="71.111" height="71.111"/>
		<path style="fill:#D3DBDD;" d="M229.652,126.443c0-39.273-31.838-71.11-71.111-71.11S87.43,87.17,87.43,126.443
			c0,16.17,5.406,31.072,14.496,43.018h-0.009c19.672,28.572,21.068,63.65,21.068,63.65h35.403h35.404
			c0,0,1.327-33.197,19.511-61.307C223.512,159.494,229.652,143.688,229.652,126.443z"/>
		
			<line style="fill:none;stroke:#30241C;stroke-width:4;stroke-miterlimit:10;" x1="119.097" y1="286.723" x2="197.985" y2="286.723"/>
		
			<line style="fill:none;stroke:#30241C;stroke-width:4;stroke-miterlimit:10;" x1="119.097" y1="268.666" x2="197.985" y2="268.666"/>
		<rect x="141.318" y="304.223" style="fill:#64CDF2;" width="35" height="17.777"/>
		
			<line style="fill:none;stroke:#30241C;stroke-width:4;stroke-miterlimit:10;" x1="140.764" y1="233.111" x2="140.764" y2="108.666"/>
		
			<line style="fill:none;stroke:#30241C;stroke-width:4;stroke-miterlimit:10;" x1="176.318" y1="233.111" x2="176.318" y2="108.666"/>
		
			<line style="fill:none;stroke:#30241C;stroke-width:4;stroke-miterlimit:10;" x1="129.652" y1="108.666" x2="187.43" y2="108.666"/>
		
			<circle style="fill:none;stroke:#30241C;stroke-width:4;stroke-linecap:round;stroke-miterlimit:10;stroke-dasharray:2,20;" cx="158.541" cy="158.541" r="156.541"/>
	</g>
</g>
<g id="Layer_1">
</g>
</svg>
