<?xml version="1.0" encoding="iso-8859-1"?>
<!-- Generator: Adobe Illustrator 16.0.0, SVG Export Plug-In . SVG Version: 6.00 Build 0)  -->
<!DOCTYPE svg PUBLIC "-//W3C//DTD SVG 1.1//EN" "http://www.w3.org/Graphics/SVG/1.1/DTD/svg11.dtd">
<svg version="1.1" xmlns="http://www.w3.org/2000/svg" xmlns:xlink="http://www.w3.org/1999/xlink" x="0px" y="0px"
	 width="320.529px" height="320.529px" viewBox="0 0 320.529 320.529" style="enable-background:new 0 0 320.529 320.529;"
	 xml:space="preserve">
<g id="Layer_139">
	<g>
		<g>
			
				<rect x="-35.287" y="125.256" transform="matrix(0.7071 -0.7071 0.7071 0.7071 -63.6178 153.5869)" style="fill:#64CDF2;" width="377.747" height="56.662"/>
			
				<rect x="-8.576" y="170.854" transform="matrix(0.7071 -0.7071 0.7071 0.7071 -74.6818 180.2979)" style="fill:#3AB1CC;" width="377.747" height="18.887"/>
			<circle style="fill:none;stroke:#30241C;stroke-width:4;stroke-miterlimit:10;" cx="260.43" cy="46.744" r="9.443"/>
			<g>
				
					<line style="fill:none;stroke:#30241C;stroke-width:4;stroke-miterlimit:10;" x1="13.077" y1="254.031" x2="19.754" y2="260.707"/>
				
					<line style="fill:none;stroke:#30241C;stroke-width:4;stroke-miterlimit:10;" x1="26.711" y1="240.398" x2="33.389" y2="247.074"/>
				
					<line style="fill:none;stroke:#30241C;stroke-width:4;stroke-miterlimit:10;" x1="40.066" y1="227.041" x2="46.743" y2="233.719"/>
				
					<line style="fill:none;stroke:#30241C;stroke-width:4;stroke-miterlimit:10;" x1="53.422" y1="213.688" x2="60.1" y2="220.363"/>
				
					<line style="fill:none;stroke:#30241C;stroke-width:4;stroke-miterlimit:10;" x1="66.777" y1="200.332" x2="73.454" y2="207.008"/>
				
					<line style="fill:none;stroke:#30241C;stroke-width:4;stroke-miterlimit:10;" x1="80.41" y1="186.697" x2="87.088" y2="193.375"/>
				
					<line style="fill:none;stroke:#30241C;stroke-width:4;stroke-miterlimit:10;" x1="93.767" y1="173.342" x2="100.443" y2="180.02"/>
				
					<line style="fill:none;stroke:#30241C;stroke-width:4;stroke-miterlimit:10;" x1="107.121" y1="159.986" x2="113.799" y2="166.664"/>
				
					<line style="fill:none;stroke:#30241C;stroke-width:4;stroke-miterlimit:10;" x1="120.199" y1="146.91" x2="126.876" y2="153.587"/>
				
					<line style="fill:none;stroke:#30241C;stroke-width:4;stroke-miterlimit:10;" x1="133.832" y1="133.275" x2="140.51" y2="139.953"/>
				
					<line style="fill:none;stroke:#30241C;stroke-width:4;stroke-miterlimit:10;" x1="147.188" y1="119.92" x2="153.865" y2="126.598"/>
				
					<line style="fill:none;stroke:#30241C;stroke-width:4;stroke-miterlimit:10;" x1="160.543" y1="106.564" x2="167.221" y2="113.242"/>
				
					<line style="fill:none;stroke:#30241C;stroke-width:4;stroke-miterlimit:10;" x1="173.62" y1="93.488" x2="180.298" y2="100.166"/>
				
					<line style="fill:none;stroke:#30241C;stroke-width:4;stroke-miterlimit:10;" x1="187.254" y1="79.854" x2="193.932" y2="86.531"/>
				
					<line style="fill:none;stroke:#30241C;stroke-width:4;stroke-miterlimit:10;" x1="200.61" y1="66.498" x2="207.287" y2="73.176"/>
				
					<line style="fill:none;stroke:#30241C;stroke-width:4;stroke-miterlimit:10;" x1="213.965" y1="53.144" x2="220.643" y2="59.82"/>
			</g>
		</g>
		<g>
			
				<rect x="-8.868" y="135.658" transform="matrix(0.7071 0.7071 -0.7071 0.7071 163.2601 -67.3449)" style="fill:#ED4F3E;" width="343.581" height="55.483"/>
			
				<rect x="281.124" y="265.033" transform="matrix(-0.7071 -0.7071 0.7071 -0.7071 291.9584 706.4819)" style="fill:#D3DBDD;" width="22.346" height="55.482"/>
			<polygon style="fill:#D3DBDD;" points="1.383,1.857 61.064,22.309 21.832,61.541 			"/>
			<polygon style="fill:#ED4F3E;" points="1.383,1.857 25.628,10.166 9.69,26.104 			"/>
			<line style="fill:none;stroke:#30241C;stroke-width:4;stroke-miterlimit:10;" x1="77.758" y1="32.326" x2="31.85" y2="78.234"/>
			<line style="fill:none;stroke:#30241C;stroke-width:4;stroke-miterlimit:10;" x1="91.113" y1="45.681" x2="45.205" y2="91.59"/>
			
				<line style="fill:none;stroke:#30241C;stroke-width:4;stroke-miterlimit:10;" x1="104.469" y1="59.037" x2="58.56" y2="104.945"/>
			
				<line style="fill:none;stroke:#30241C;stroke-width:4;stroke-miterlimit:10;" x1="117.824" y1="72.392" x2="71.916" y2="118.301"/>
		</g>
		
			<rect x="184.012" y="215.388" transform="matrix(0.7071 0.7071 -0.7071 0.7071 224.0526 -93.3732)" style="fill:none;stroke:#30241C;stroke-width:4;stroke-miterlimit:10;" width="81.449" height="16.756"/>
		<g>
			<g>
				<path style="fill:none;stroke:#30241C;stroke-width:4;stroke-linecap:round;stroke-miterlimit:10;" d="M295.7,86.512
					c0.159,0.293,0.318,0.586,0.476,0.879"/>
				
					<path style="fill:none;stroke:#30241C;stroke-width:4;stroke-linecap:round;stroke-miterlimit:10;stroke-dasharray:1.9845,19.8449;" d="
					M304.396,105.442c20.677,54.585,9.039,118.616-34.914,162.57c-46.375,46.375-115.101,56.775-171.501,31.202"/>
				<path style="fill:none;stroke:#30241C;stroke-width:4;stroke-linecap:round;stroke-miterlimit:10;" d="M89.103,294.834
					c-0.294-0.157-0.587-0.315-0.88-0.475"/>
			</g>
		</g>
	</g>
</g>
<g id="Layer_1">
</g>
</svg>
