<?xml version="1.0" encoding="iso-8859-1"?>
<!-- Generator: Adobe Illustrator 16.0.0, SVG Export Plug-In . SVG Version: 6.00 Build 0)  -->
<!DOCTYPE svg PUBLIC "-//W3C//DTD SVG 1.1//EN" "http://www.w3.org/Graphics/SVG/1.1/DTD/svg11.dtd">
<svg version="1.1" xmlns="http://www.w3.org/2000/svg" xmlns:xlink="http://www.w3.org/1999/xlink" x="0px" y="0px"
	 width="242.908px" height="320.125px" viewBox="0 0 242.908 320.125" style="enable-background:new 0 0 242.908 320.125;"
	 xml:space="preserve">
<g id="Layer_140">
	<g>
		<g>
			<path style="fill:#3AB1CC;" d="M135.679,24c0,13.254-16.034,24-16.034,24s-16.034-10.746-16.034-24c0-13.256,16.034-24,16.034-24
				S135.679,10.744,135.679,24z"/>
			<path style="fill:#3AB1CC;" d="M85.496,119.736c-2.112,13.086-19.655,21.139-19.655,21.139s-14.116-13.164-12.004-26.25
				c2.113-13.084,19.655-21.137,19.655-21.137S87.608,106.652,85.496,119.736z"/>
			<path style="fill:#64CDF2;" d="M214.977,99.607c-11.163,7.148-28.859-0.561-28.859-0.561s0.402-19.297,11.564-26.445
				c11.161-7.148,28.858,0.561,28.858,0.561S226.138,92.459,214.977,99.607z"/>
			<path style="fill:#3AB1CC;" d="M204.863,144.92c-12.758-3.6-18.746-21.949-18.746-21.949s14.693-12.514,27.451-8.916
				c12.756,3.598,18.745,21.949,18.745,21.949S217.619,148.518,204.863,144.92z"/>
			<path style="fill:#64CDF2;" d="M92.94,49.76c9.373,9.373,5.633,28.309,5.633,28.309s-18.936,3.74-28.309-5.633
				c-9.372-9.373-5.633-28.309-5.633-28.309S83.568,40.387,92.94,49.76z"/>
			<path style="fill:#3AB1CC;" d="M166.631,84.357c-1.27,13.193-18.262,22.354-18.262,22.354s-14.93-12.234-13.658-25.428
				c1.27-13.193,18.26-22.352,18.26-22.352S167.9,71.164,166.631,84.357z"/>
			<path style="fill:#3AB1CC;" d="M164.79,149.828c-11.1,7.244-11.334,26.545-11.334,26.545s17.761,7.555,28.861,0.311
				c11.1-7.244,11.335-26.545,11.335-26.545S175.891,142.584,164.79,149.828z"/>
			<path style="fill:#3AB1CC;" d="M181.513,186.324c-12.642-3.988-27.712,8.07-27.712,8.07s5.42,18.523,18.063,22.512
				c12.639,3.99,27.712-8.068,27.712-8.068S194.152,190.314,181.513,186.324z"/>
			<path style="fill:#64CDF2;" d="M30.22,169.34c12.575-4.189,27.838,7.625,27.838,7.625s-5.125,18.609-17.7,22.799
				c-12.576,4.189-27.839-7.625-27.839-7.625S17.645,173.531,30.22,169.34z"/>
			<path style="fill:#3AB1CC;" d="M28.846,107.473c10.46,8.141,9.09,27.395,9.09,27.395s-18.328,6.051-28.788-2.09
				c-10.459-8.143-9.089-27.396-9.089-27.396S18.387,99.33,28.846,107.473z"/>
		</g>
		<rect x="71.645" y="224.125" style="fill:#D3DBDD;" width="96" height="16"/>
		<polygon style="fill:#ED4F3E;" points="151.847,320.125 87.516,320.125 79.508,240.125 159.508,240.125 		"/>
		<line style="fill:none;stroke:#30241C;stroke-width:4;stroke-miterlimit:10;" x1="81.11" y1="256.125" x2="90.311" y2="256.125"/>
		
			<line style="fill:none;stroke:#30241C;stroke-width:4;stroke-miterlimit:10;" x1="83.044" y1="272.125" x2="92.247" y2="272.125"/>
		
			<line style="fill:none;stroke:#30241C;stroke-width:4;stroke-miterlimit:10;" x1="84.311" y1="288.125" x2="93.513" y2="288.125"/>
		
			<line style="fill:none;stroke:#30241C;stroke-width:4;stroke-miterlimit:10;" x1="85.958" y1="304.125" x2="95.159" y2="304.125"/>
		
			<line style="fill:none;stroke:#30241C;stroke-width:4;stroke-miterlimit:10;" x1="120.145" y1="224.125" x2="120.145" y2="16.125"/>
		
			<line style="fill:none;stroke:#30241C;stroke-width:4;stroke-miterlimit:10;" x1="120.145" y1="192.125" x2="7.645" y2="112.125"/>
		
			<line style="fill:none;stroke:#30241C;stroke-width:4;stroke-miterlimit:10;" x1="63.895" y1="152.125" x2="71.645" y2="112.125"/>
		
			<line style="fill:none;stroke:#30241C;stroke-width:4;stroke-miterlimit:10;" x1="120.145" y1="140.875" x2="215.645" y2="80.125"/>
		
			<line style="fill:none;stroke:#30241C;stroke-width:4;stroke-miterlimit:10;" x1="159.508" y1="115.834" x2="207.645" y2="128.125"/>
		<line style="fill:none;stroke:#30241C;stroke-width:4;stroke-miterlimit:10;" x1="119.508" y1="96.348" x2="77.145" y2="56.848"/>
		
			<line style="fill:none;stroke:#30241C;stroke-width:4;stroke-miterlimit:10;" x1="148.318" y1="122.434" x2="151.115" y2="76.678"/>
		
			<line style="fill:none;stroke:#30241C;stroke-width:4;stroke-miterlimit:10;" x1="119.645" y1="196.992" x2="169.227" y2="167.049"/>
		
			<line style="fill:none;stroke:#30241C;stroke-width:4;stroke-miterlimit:10;" x1="135.604" y1="187.297" x2="190.199" y2="206.646"/>
		
			<line style="fill:none;stroke:#30241C;stroke-width:4;stroke-miterlimit:10;" x1="83.771" y1="166.418" x2="29.494" y2="186.637"/>
		<g>
			
				<circle style="fill:none;stroke:#30241C;stroke-width:4;stroke-linecap:round;stroke-miterlimit:10;stroke-dasharray:2.0575,20.5749;" cx="35.093" cy="184.551" r="32.427"/>
		</g>
		<g>
			
				<path style="fill:none;stroke:#30241C;stroke-width:4;stroke-linecap:round;stroke-miterlimit:10;stroke-dasharray:2.0731,20.7308;" d="
				M108.62,68.748c-4.225,15.475-20.193,24.592-35.667,20.367S48.361,68.922,52.586,53.447c4.224-15.471,20.192-24.59,35.666-20.365
				S112.844,53.275,108.62,68.748z"/>
		</g>
		<g>
			
				<circle style="fill:none;stroke:#30241C;stroke-width:4;stroke-linecap:round;stroke-miterlimit:10;stroke-dasharray:1.9743,19.7429;" cx="206.329" cy="86.104" r="34.573"/>
		</g>
	</g>
</g>
<g id="Layer_1">
</g>
</svg>
