<?xml version="1.0" encoding="iso-8859-1"?>
<!-- Generator: Adobe Illustrator 16.0.0, SVG Export Plug-In . SVG Version: 6.00 Build 0)  -->
<!DOCTYPE svg PUBLIC "-//W3C//DTD SVG 1.1//EN" "http://www.w3.org/Graphics/SVG/1.1/DTD/svg11.dtd">
<svg version="1.1" xmlns="http://www.w3.org/2000/svg" xmlns:xlink="http://www.w3.org/1999/xlink" x="0px" y="0px"
	 width="321.728px" height="321.998px" viewBox="0 0 321.728 321.998" style="enable-background:new 0 0 321.728 321.998;"
	 xml:space="preserve">
<g id="Layer_145">
	<g>
		<rect x="2" y="272" style="fill:#64CDF2;" width="135.863" height="32"/>
		<rect x="153.865" y="272" style="fill:#64CDF2;" width="135.863" height="32"/>
		<rect x="137.863" y="112.333" style="fill:#BAC4C6;" width="16.002" height="95.001"/>
		<path style="fill:none;stroke:#30241C;stroke-width:4;stroke-miterlimit:10;" d="M153.863,256h-16l0.001,56
			c0,4.418,3.581,8,7.999,7.998l0,0c4.418,0,8-3.58,8-7.998V256z"/>
		<path style="fill:#ED4F3E;" d="M316.895,175.75h-16l0.001,72.25c0,4.418,3.581,8,7.999,7.998l0,0c4.418,0,8-3.58,8-7.998V175.75z"
			/>
		<line style="fill:none;stroke:#30241C;stroke-width:4;stroke-miterlimit:10;" x1="145.863" y1="256" x2="145.863" y2="240"/>
		<rect x="137.863" y="224" style="fill:#BAC4C6;" width="16" height="16"/>
		<rect x="137.863" y="80" style="fill:#BAC4C6;" width="16" height="16"/>
		<polygon style="fill:none;stroke:#30241C;stroke-width:4;stroke-miterlimit:10;" points="185.863,96 121.863,96 121.863,111.999 
			185.864,112 185.864,208 121.863,208 121.863,224 201.863,224 201.863,223.668 201.863,208 201.863,112 201.863,96 		"/>
		<g>
			<path style="fill:#ED4F3E;" d="M50,128H34l0.001,119c0,4.418,3.581,8,7.999,8l0,0c4.418,0,8-3.582,8-8V128z"/>
			<rect x="34" y="80" style="fill:#ED4F3E;" width="16" height="15.667"/>
			<polygon style="fill:none;stroke:#30241C;stroke-width:4;stroke-miterlimit:10;" points="98,128 2,128 2,96 82,96 			"/>
		</g>
		<circle style="fill:#FFFFFF;" cx="274" cy="288" r="5.002"/>
		<line style="fill:none;stroke:#30241C;stroke-width:4;stroke-miterlimit:10;" x1="17.875" y1="272" x2="17.875" y2="288"/>
		<line style="fill:none;stroke:#30241C;stroke-width:4;stroke-miterlimit:10;" x1="34" y1="272" x2="34" y2="288"/>
		<line style="fill:none;stroke:#30241C;stroke-width:4;stroke-miterlimit:10;" x1="50" y1="272" x2="50" y2="288"/>
		<line style="fill:none;stroke:#30241C;stroke-width:4;stroke-miterlimit:10;" x1="66.125" y1="272" x2="66.125" y2="288"/>
		<line style="fill:none;stroke:#30241C;stroke-width:4;stroke-miterlimit:10;" x1="82" y1="272" x2="82" y2="288"/>
		<line style="fill:none;stroke:#30241C;stroke-width:4;stroke-miterlimit:10;" x1="98.125" y1="272" x2="98.125" y2="288"/>
		<line style="fill:none;stroke:#30241C;stroke-width:4;stroke-miterlimit:10;" x1="113.801" y1="272" x2="113.801" y2="288"/>
		<line style="fill:none;stroke:#30241C;stroke-width:4;stroke-miterlimit:10;" x1="129.926" y1="272" x2="129.926" y2="288"/>
		<line style="fill:none;stroke:#30241C;stroke-width:4;stroke-miterlimit:10;" x1="162" y1="272" x2="162" y2="288"/>
		<line style="fill:none;stroke:#30241C;stroke-width:4;stroke-miterlimit:10;" x1="178.125" y1="272" x2="178.125" y2="288"/>
		<line style="fill:none;stroke:#30241C;stroke-width:4;stroke-miterlimit:10;" x1="194.125" y1="272" x2="194.125" y2="288"/>
		<line style="fill:none;stroke:#30241C;stroke-width:4;stroke-miterlimit:10;" x1="210.25" y1="272" x2="210.25" y2="288"/>
		<line style="fill:none;stroke:#30241C;stroke-width:4;stroke-miterlimit:10;" x1="226.125" y1="272" x2="226.125" y2="288"/>
		<line style="fill:none;stroke:#30241C;stroke-width:4;stroke-miterlimit:10;" x1="242.25" y1="272" x2="242.25" y2="288"/>
		<line style="fill:none;stroke:#30241C;stroke-width:4;stroke-miterlimit:10;" x1="257.926" y1="272" x2="257.926" y2="288"/>
		<polygon style="fill:#BAC4C6;" points="321.728,19.383 315.311,0 302.478,0 296.061,19.383 300.895,29.051 300.895,160 
			316.895,160 316.895,29.049 		"/>
		<line style="fill:none;stroke:#30241C;stroke-width:4;stroke-miterlimit:10;" x1="308.895" y1="175.75" x2="308.895" y2="160"/>
		<polygon style="fill:#59A1C6;" points="194,16 274,176 274,16 		"/>
		<polygon style="fill:#FFFFFF;" points="221.797,32 258,32 258,107.797 		"/>
		<line style="fill:none;stroke:#30241C;stroke-width:4;stroke-miterlimit:10;" x1="274" y1="32.037" x2="266" y2="32.037"/>
		<line style="fill:none;stroke:#30241C;stroke-width:4;stroke-miterlimit:10;" x1="274" y1="48.162" x2="266" y2="48.162"/>
		<line style="fill:none;stroke:#30241C;stroke-width:4;stroke-miterlimit:10;" x1="274" y1="64.162" x2="266" y2="64.162"/>
		<line style="fill:none;stroke:#30241C;stroke-width:4;stroke-miterlimit:10;" x1="274" y1="80.287" x2="266" y2="80.287"/>
		<line style="fill:none;stroke:#30241C;stroke-width:4;stroke-miterlimit:10;" x1="274" y1="96.162" x2="266" y2="96.162"/>
		<line style="fill:none;stroke:#30241C;stroke-width:4;stroke-miterlimit:10;" x1="274" y1="112.287" x2="266" y2="112.287"/>
		<line style="fill:none;stroke:#30241C;stroke-width:4;stroke-miterlimit:10;" x1="274" y1="127.963" x2="266" y2="127.963"/>
		<g>
			<path style="fill:#D3DBDD;" d="M18.125,48.063h-16v15.875h18.699h17.809h54.984h17.808h18.7V48.063h-16c0-26.51-21.49-48-48-48
				S18.125,21.553,18.125,48.063z M97.875,48.063h-63.5c0-17.535,14.215-31.75,31.75-31.75S97.875,30.527,97.875,48.063z"/>
			
				<line style="fill:none;stroke:#30241C;stroke-width:4;stroke-miterlimit:10;" x1="114.088" y1="64.162" x2="114.088" y2="56.162"/>
			<line style="fill:none;stroke:#30241C;stroke-width:4;stroke-miterlimit:10;" x1="97.963" y1="64.162" x2="97.963" y2="56.162"/>
			<line style="fill:none;stroke:#30241C;stroke-width:4;stroke-miterlimit:10;" x1="81.963" y1="64.162" x2="81.963" y2="56.162"/>
			<line style="fill:none;stroke:#30241C;stroke-width:4;stroke-miterlimit:10;" x1="65.838" y1="64.162" x2="65.838" y2="56.162"/>
			<line style="fill:none;stroke:#30241C;stroke-width:4;stroke-miterlimit:10;" x1="49.963" y1="64.162" x2="49.963" y2="56.162"/>
			<line style="fill:none;stroke:#30241C;stroke-width:4;stroke-miterlimit:10;" x1="33.838" y1="64.162" x2="33.838" y2="56.162"/>
			<line style="fill:none;stroke:#30241C;stroke-width:4;stroke-miterlimit:10;" x1="18.162" y1="64.162" x2="18.162" y2="56.162"/>
		</g>
		<g>
			<line style="fill:none;stroke:#30241C;stroke-width:4;stroke-miterlimit:10;" x1="242" y1="224" x2="257.963" y2="239.963"/>
			<line style="fill:none;stroke:#30241C;stroke-width:4;stroke-miterlimit:10;" x1="257.963" y1="224" x2="242" y2="239.963"/>
		</g>
		<g>
			
				<line style="fill:none;stroke:#30241C;stroke-width:4;stroke-miterlimit:10;" x1="145.882" y1="16.768" x2="161.845" y2="32.73"/>
			
				<line style="fill:none;stroke:#30241C;stroke-width:4;stroke-miterlimit:10;" x1="161.845" y1="16.768" x2="145.882" y2="32.73"/>
		</g>
		<g>
			<line style="fill:none;stroke:#30241C;stroke-width:4;stroke-miterlimit:10;" x1="82" y1="159.893" x2="97.963" y2="175.855"/>
			<line style="fill:none;stroke:#30241C;stroke-width:4;stroke-miterlimit:10;" x1="97.963" y1="159.893" x2="82" y2="175.855"/>
		</g>
		<g>
			<g>
				
					<line style="fill:none;stroke:#30241C;stroke-width:4;stroke-miterlimit:10;" x1="161.963" y1="64.162" x2="167.296" y2="64.162"/>
				
					<line style="fill:none;stroke:#30241C;stroke-width:4;stroke-miterlimit:10;" x1="177.963" y1="64.162" x2="183.296" y2="64.162"/>
				
					<line style="fill:none;stroke:#30241C;stroke-width:4;stroke-miterlimit:10;" x1="193.963" y1="64.162" x2="199.296" y2="64.162"/>
				
					<line style="fill:none;stroke:#30241C;stroke-width:4;stroke-miterlimit:10;" x1="207.422" y1="64.162" x2="212.755" y2="64.162"/>
			</g>
			<g>
				
					<line style="fill:none;stroke:#30241C;stroke-width:4;stroke-miterlimit:10;" x1="225.963" y1="76.541" x2="225.963" y2="81.875"/>
				
					<line style="fill:none;stroke:#30241C;stroke-width:4;stroke-miterlimit:10;" x1="225.963" y1="92.541" x2="225.963" y2="97.875"/>
				
					<line style="fill:none;stroke:#30241C;stroke-width:4;stroke-miterlimit:10;" x1="225.963" y1="108.541" x2="225.963" y2="113.875"/>
				
					<line style="fill:none;stroke:#30241C;stroke-width:4;stroke-miterlimit:10;" x1="225.963" y1="122" x2="225.963" y2="127.334"/>
			</g>
			<rect x="220.713" y="58.75" style="fill:#30241C;" width="10.5" height="10.5"/>
			<rect x="146.088" y="58.75" style="fill:#30241C;" width="10.5" height="10.5"/>
			<rect x="220.713" y="134.5" style="fill:#30241C;" width="10.5" height="10.5"/>
		</g>
	</g>
</g>
<g id="Layer_1">
</g>
</svg>
