<?xml version="1.0" encoding="iso-8859-1"?>
<!-- Generator: Adobe Illustrator 16.0.0, SVG Export Plug-In . SVG Version: 6.00 Build 0)  -->
<!DOCTYPE svg PUBLIC "-//W3C//DTD SVG 1.1//EN" "http://www.w3.org/Graphics/SVG/1.1/DTD/svg11.dtd">
<svg version="1.1" xmlns="http://www.w3.org/2000/svg" xmlns:xlink="http://www.w3.org/1999/xlink" x="0px" y="0px"
	 width="312.75px" height="324.271px" viewBox="0 0 312.75 324.271" style="enable-background:new 0 0 312.75 324.271;"
	 xml:space="preserve">
<g id="Layer_144">
	<g>
		<path style="fill:#ED4F3E;" d="M288,97.251c13.669,0,24.75,11.08,24.75,24.75c0,13.668-11.081,24.75-24.75,24.75"/>
		<rect x="112" y="185.667" style="fill:#ED4F3E;" width="16" height="40.334"/>
		<rect y="82.001" style="fill:#ED4F3E;" width="32" height="80"/>
		<polygon style="fill:#64CDF2;" points="144,178.001 272,226.001 272,18.001 144,66.001 		"/>
		<rect x="32" y="66.001" style="fill:#D3DBDD;" width="112" height="112"/>
		<rect x="32" y="122.001" style="fill:#BAC4C6;" width="112" height="56"/>
		<rect x="272" y="10.001" style="fill:none;stroke:#30241C;stroke-width:4;stroke-miterlimit:10;" width="16" height="224"/>
		<polygon style="fill:none;stroke:#30241C;stroke-width:4;stroke-miterlimit:10;" points="48.5,178.001 80,305.501 112,305.501 
			112,178.001 		"/>
		<line style="fill:none;stroke:#30241C;stroke-width:4;stroke-miterlimit:10;" x1="16" y1="98.001" x2="8.5" y2="98.001"/>
		<line style="fill:none;stroke:#30241C;stroke-width:4;stroke-miterlimit:10;" x1="16" y1="114.001" x2="8.5" y2="114.001"/>
		<line style="fill:none;stroke:#30241C;stroke-width:4;stroke-miterlimit:10;" x1="16" y1="130.001" x2="8.5" y2="130.001"/>
		<line style="fill:none;stroke:#30241C;stroke-width:4;stroke-miterlimit:10;" x1="16" y1="146.751" x2="8.5" y2="146.751"/>
		<line style="fill:none;stroke:#30241C;stroke-width:4;stroke-miterlimit:10;" x1="112" y1="193.251" x2="104.5" y2="193.251"/>
		<line style="fill:none;stroke:#30241C;stroke-width:4;stroke-miterlimit:10;" x1="112" y1="209.251" x2="104.5" y2="209.251"/>
		<line style="fill:none;stroke:#30241C;stroke-width:4;stroke-miterlimit:10;" x1="112" y1="225.251" x2="104.5" y2="225.251"/>
		<line style="fill:none;stroke:#30241C;stroke-width:4;stroke-miterlimit:10;" x1="112" y1="242.001" x2="104.5" y2="242.001"/>
		<line style="fill:none;stroke:#30241C;stroke-width:4;stroke-miterlimit:10;" x1="112" y1="258.001" x2="104.5" y2="258.001"/>
		<line style="fill:none;stroke:#30241C;stroke-width:4;stroke-miterlimit:10;" x1="112" y1="274.001" x2="104.5" y2="274.001"/>
		<line style="fill:none;stroke:#30241C;stroke-width:4;stroke-miterlimit:10;" x1="112" y1="290.001" x2="104.5" y2="290.001"/>
		<rect x="64" y="98.001" style="fill:#FFFFFF;" width="31" height="16"/>
		<rect x="64" y="98.001" style="fill:none;stroke:#30241C;stroke-width:4;stroke-miterlimit:10;" width="31" height="16"/>
		<rect x="64" y="130.751" style="fill:none;stroke:#30241C;stroke-width:4;stroke-miterlimit:10;" width="9.25" height="9.25"/>
		<rect x="86.75" y="130.751" style="fill:none;stroke:#30241C;stroke-width:4;stroke-miterlimit:10;" width="9.25" height="9.25"/>
		<path style="fill:none;stroke:#30241C;stroke-width:4;stroke-miterlimit:10;" d="M110.033,6.771
			c-6.361,6.361-16.656,6.361-23.016,0c-6.361-6.36-16.656-6.36-23.018,0c-6.361,6.361-16.654,6.361-23.016,0
			c-6.361-6.36-16.656-6.36-23.018,0"/>
		<path style="fill:none;stroke:#30241C;stroke-width:4;stroke-miterlimit:10;" d="M286.032,317.501
			c-6.36,6.359-16.654,6.359-23.016,0c-6.361-6.361-16.656-6.361-23.017,0c-6.361,6.359-16.655,6.359-23.017,0
			c-6.36-6.361-16.655-6.361-23.016,0"/>
		<path style="fill:none;stroke:#30241C;stroke-width:4;stroke-miterlimit:10;" d="M256,45.229c-6.36,6.361-16.655,6.361-23.016,0
			c-6.361-6.361-16.656-6.361-23.017,0c-6.361,6.361-16.655,6.361-23.017,0s-16.655-6.361-23.017,0"/>
		<g>
			
				<circle style="fill:none;stroke:#30241C;stroke-width:4;stroke-linecap:round;stroke-miterlimit:10;stroke-dasharray:1.9893,19.8928;" cx="201.001" cy="185.669" r="48.77"/>
		</g>
		<circle style="fill:#59A1C6;" cx="23.917" cy="37.313" r="7.917"/>
		<circle style="fill:#59A1C6;" cx="148.101" cy="272.618" r="8.951"/>
	</g>
</g>
<g id="Layer_1">
</g>
</svg>
