<?xml version="1.0" encoding="iso-8859-1"?>
<!-- Generator: Adobe Illustrator 16.0.0, SVG Export Plug-In . SVG Version: 6.00 Build 0)  -->
<!DOCTYPE svg PUBLIC "-//W3C//DTD SVG 1.1//EN" "http://www.w3.org/Graphics/SVG/1.1/DTD/svg11.dtd">
<svg version="1.1" xmlns="http://www.w3.org/2000/svg" xmlns:xlink="http://www.w3.org/1999/xlink" x="0px" y="0px" width="320px"
	 height="320px" viewBox="0 0 320 320" style="enable-background:new 0 0 320 320;" xml:space="preserve">
<g id="Layer_138">
	<g>
		<g>
			<path style="fill:#D3DBDD;" d="M320,167.75v-15.5h-16.072c-0.735-13.863-3.437-27.203-7.821-39.754l14.848-6.096l-5.887-14.338
				l-14.854,6.098c-5.996-12.59-13.767-24.172-22.989-34.424l11.394-11.395l-10.96-10.959l-11.401,11.4
				c-10.04-9.006-21.348-16.629-33.629-22.555l6.214-14.869l-14.302-5.977l-6.221,14.887c-12.789-4.541-26.406-7.332-40.568-8.07V0
				h-15.5v16.217c-13.84,0.748-27.157,3.453-39.687,7.838L106.4,9.045l-14.338,5.887l6.168,15.023
				c-12.565,5.992-24.124,13.752-34.357,22.957l-11.53-11.529l-10.96,10.959l11.538,11.539
				C43.93,73.902,36.319,85.188,30.398,97.443l-15.039-6.285l-5.977,14.303l15.047,6.287c-4.539,12.768-7.334,26.363-8.084,40.502H0
				v15.5h16.346c0.733,13.826,3.422,27.133,7.787,39.654l-15.088,6.193l5.887,14.34l15.085-6.193
				c5.975,12.568,13.716,24.133,22.904,34.375l-11.538,11.537l10.96,10.961l11.53-11.531c10.014,9.008,21.295,16.635,33.547,22.572
				l-6.261,14.982l14.302,5.977l6.256-14.971c12.775,4.561,26.381,7.371,40.533,8.135V320h15.5v-16.201
				c13.85-0.721,27.179-3.406,39.721-7.77l6.128,14.924l14.339-5.887l-6.124-14.916c12.595-5.979,24.182-13.73,34.442-22.936
				l11.401,11.402l10.96-10.961l-11.394-11.393c9.024-10.031,16.661-21.336,22.604-33.613l14.813,6.189l5.977-14.301l-14.81-6.189
				c4.562-12.797,7.368-26.424,8.12-40.6H320z M160.137,286c-69.588,0-126-56.412-126-126s56.412-126,126-126s126,56.412,126,126
				S229.725,286,160.137,286z"/>
			<circle style="fill:#FFFFFF;" cx="160.137" cy="160" r="126"/>
		</g>
		<path style="fill:none;stroke:#30241C;stroke-width:4;stroke-miterlimit:10;" d="M313.637,160c0,0-68.725,76.75-153.5,76.75
			C75.36,236.75,6.637,160,6.637,160s68.724-76.75,153.5-76.75C244.912,83.25,313.637,160,313.637,160z"/>
		<circle style="fill:#64CDF2;" cx="160.137" cy="160" r="50.5"/>
		<circle style="fill:#3AB1CC;" cx="160.137" cy="160" r="23.5"/>
		<circle style="fill:#FFFFFF;" cx="160.137" cy="160" r="9.25"/>
		<line style="fill:none;stroke:#30241C;stroke-width:4;stroke-miterlimit:10;" x1="160.387" y1="144.25" x2="160.387" y2="128"/>
		
			<line style="fill:none;stroke:#30241C;stroke-width:4;stroke-miterlimit:10;" x1="160.387" y1="191.625" x2="160.387" y2="175.375"/>
		
			<line style="fill:none;stroke:#30241C;stroke-width:4;stroke-miterlimit:10;" x1="144.824" y1="159.813" x2="128.574" y2="159.813"/>
		
			<line style="fill:none;stroke:#30241C;stroke-width:4;stroke-miterlimit:10;" x1="192.199" y1="159.813" x2="175.949" y2="159.813"/>
	</g>
</g>
<g id="Layer_1">
</g>
</svg>
