<?xml version="1.0" encoding="iso-8859-1"?>
<!-- Generator: Adobe Illustrator 16.0.0, SVG Export Plug-In . SVG Version: 6.00 Build 0)  -->
<!DOCTYPE svg PUBLIC "-//W3C//DTD SVG 1.1//EN" "http://www.w3.org/Graphics/SVG/1.1/DTD/svg11.dtd">
<svg version="1.1" xmlns="http://www.w3.org/2000/svg" xmlns:xlink="http://www.w3.org/1999/xlink" x="0px" y="0px" width="320px"
	 height="322px" viewBox="0 0 320 322" style="enable-background:new 0 0 320 322;" xml:space="preserve">
<g id="Layer_142">
	<g>
		<polygon style="fill:#BAC4C6;" points="288,78 304,2 272,2 		"/>
		<rect y="193.5" style="fill:#64CDF2;" width="80" height="48.5"/>
		<rect x="240" y="193.5" style="fill:#64CDF2;" width="32" height="48.5"/>
		<polygon style="fill:#D3DBDD;" points="128.25,178 128.25,50 80,98.5 80,178 		"/>
		<polygon style="fill:#D3DBDD;" points="191.75,177.75 191.75,49.75 240,98.25 240,177.75 		"/>
		<rect x="80" y="177.75" style="fill:none;stroke:#30241C;stroke-width:4;stroke-miterlimit:10;" width="160" height="80.25"/>
		<circle style="fill:#ED4F3E;" cx="160.5" cy="66" r="16"/>
		<g>
			
				<circle style="fill:none;stroke:#30241C;stroke-width:4;stroke-linecap:round;stroke-miterlimit:10;stroke-dasharray:2.0307,20.3072;" cx="160.5" cy="66" r="64"/>
		</g>
		<g>
			<line style="fill:none;stroke:#30241C;stroke-width:4;stroke-miterlimit:10;" x1="96" y1="177.75" x2="96" y2="185.5"/>
			<line style="fill:none;stroke:#30241C;stroke-width:4;stroke-miterlimit:10;" x1="112" y1="177.75" x2="112" y2="185.5"/>
			<line style="fill:none;stroke:#30241C;stroke-width:4;stroke-miterlimit:10;" x1="128.25" y1="177.75" x2="128.25" y2="185.5"/>
			<line style="fill:none;stroke:#30241C;stroke-width:4;stroke-miterlimit:10;" x1="144.25" y1="177.75" x2="144.25" y2="185.5"/>
			<line style="fill:none;stroke:#30241C;stroke-width:4;stroke-miterlimit:10;" x1="160" y1="177.75" x2="160" y2="185.5"/>
			<line style="fill:none;stroke:#30241C;stroke-width:4;stroke-miterlimit:10;" x1="176" y1="177.75" x2="176" y2="185.5"/>
			<line style="fill:none;stroke:#30241C;stroke-width:4;stroke-miterlimit:10;" x1="192" y1="177.75" x2="192" y2="185.5"/>
			<line style="fill:none;stroke:#30241C;stroke-width:4;stroke-miterlimit:10;" x1="208" y1="177.75" x2="208" y2="185.5"/>
			<line style="fill:none;stroke:#30241C;stroke-width:4;stroke-miterlimit:10;" x1="224" y1="177.75" x2="224" y2="185.5"/>
		</g>
		<g>
			<line style="fill:none;stroke:#30241C;stroke-width:4;stroke-miterlimit:10;" x1="256" y1="193.5" x2="256" y2="201.25"/>
			<line style="fill:none;stroke:#30241C;stroke-width:4;stroke-miterlimit:10;" x1="16" y1="193.5" x2="16" y2="201.25"/>
			<line style="fill:none;stroke:#30241C;stroke-width:4;stroke-miterlimit:10;" x1="32" y1="193.5" x2="32" y2="201.25"/>
			<line style="fill:none;stroke:#30241C;stroke-width:4;stroke-miterlimit:10;" x1="48" y1="193.5" x2="48" y2="201.25"/>
			<line style="fill:none;stroke:#30241C;stroke-width:4;stroke-miterlimit:10;" x1="64" y1="193.5" x2="64" y2="201.25"/>
		</g>
		<polygon style="fill:#ED4F3E;" points="32,246 16,322 48,322 		"/>
		<polygon style="fill:#3AB1CC;" points="304,258 304,306 256,306 256,321.582 304,321.582 304,322 320,322 320,321.582 320,306 
			320,258 		"/>
	</g>
</g>
<g id="Layer_1">
</g>
</svg>
