<svg xmlns="http://www.w3.org/2000/svg" viewBox="0 0 320.79 321.79"><defs><style>.cls-1{fill:#8c76aa;}.cls-2,.cls-7,.cls-8,.cls-9{fill:none;stroke:#3f1b71;stroke-width:4px;}.cls-2{stroke-miterlimit:10;}.cls-3{fill:#e6c1cd;}.cls-4{fill:#d799ac;}.cls-5{fill:#cd8198;}.cls-6{fill:#b74a6c;}.cls-7,.cls-8,.cls-9{stroke-linecap:round;stroke-linejoin:round;}.cls-7{stroke-dasharray:0.5 20;}.cls-9{stroke-dasharray:0.45 18.09;}</style></defs><title>Asset 23</title><g id="Layer_2" data-name="Layer 2"><g id="icons"><g id="_03._Management" data-name="03. Management"><g id="_03-management" data-name="03-management"><polygon class="cls-1" points="149.71 108.28 159.9 149.27 106.93 149.27 107.95 116.8 138.52 101.65 149.71 108.28"/><path class="cls-2" d="M128.92,36.64S157.32,39,172,26.43l4.06-13S178,8,165.06,3.27C148.64-2.71,120.3,13.13,128.92,36.64Z"/><path class="cls-2" d="M172,26.43s6.66,11,18.8,10c0,0,5.83-20.57-14.71-23.12Z"/><path class="cls-2" d="M190.87,36.64S190,53,186,67.13s-26.09,18.81-26.09,18.81-22-4.7-26.08-18.81-4.89-30.49-4.89-30.49"/><path class="cls-2" d="M128.92,40.39s-4.36-1.6-6.71,4.12c-3.38,8.22,9.85,15.54,9.85,15.54"/><path class="cls-2" d="M191,40.39s4.37-1.6,6.71,4.12c3.38,8.22-9.84,15.54-9.84,15.54"/><polyline class="cls-2" points="144.08 79.43 143.22 95.05 159.9 101.22 155.41 111.65 136.31 100.34"/><polygon class="cls-1" points="170.08 108.28 159.9 149.27 212.86 149.27 211.83 116.8 181.27 101.65 170.08 108.28"/><polyline class="cls-2" points="175.71 79.43 176.57 95.05 159.9 101.22 164.38 111.65 183.48 100.34"/><polygon class="cls-3" points="257.64 280.8 267.82 321.79 214.85 321.79 215.88 289.32 246.45 274.18 257.64 280.8"/><path class="cls-3" d="M236.84,209.16s28.41,2.34,43.1-10.2l4.06-13s1.89-5.44-11-10.15C256.57,169.81,228.22,185.66,236.84,209.16Z"/><path class="cls-4" d="M279.94,199s6.66,11,18.81,10c0,0,5.83-20.57-14.71-23.11Z"/><path class="cls-2" d="M298.8,209.16s-.84,16.4-4.9,30.5-26.08,18.81-26.08,18.81-22-4.7-26.08-18.81-4.9-30.5-4.9-30.5"/><path class="cls-2" d="M236.84,212.92s-4.36-1.6-6.71,4.11c-3.37,8.23,9.85,15.55,9.85,15.55"/><path class="cls-2" d="M298.9,212.92s4.36-1.6,6.71,4.11c3.38,8.23-9.85,15.55-9.85,15.55"/><polyline class="cls-2" points="252 251.96 251.15 267.58 267.82 273.75 263.34 284.18 244.24 272.87"/><polygon class="cls-4" points="278.01 280.8 267.82 321.79 320.79 321.79 319.76 289.32 289.19 274.18 278.01 280.8"/><polyline class="cls-2" points="283.64 251.96 284.5 267.58 267.82 273.75 272.3 284.18 291.4 272.87"/><polygon class="cls-5" points="42.78 280.8 52.97 321.79 0 321.79 1.03 289.32 31.6 274.18 42.78 280.8"/><path class="cls-2" d="M22,209.16S50.4,211.5,65.09,199l4.06-13s1.89-5.44-11-10.15c-9.7-3.53-25.07-2.56-33,6.22"/><path class="cls-2" d="M65.09,199s13-1.57,18.81,10c0,0,5.83-20.57-14.72-23.11Z"/><path class="cls-2" d="M84,209.16s-.84,16.4-4.9,30.5S53,258.47,53,258.47s-22-4.7-26.09-18.81S22,209.16,22,209.16"/><path class="cls-2" d="M22,212.92s-4.36-1.6-6.71,4.11c-3.38,8.23,9.85,15.55,9.85,15.55"/><path class="cls-2" d="M84.05,212.92s4.36-1.6,6.71,4.11c3.38,8.23-9.85,15.55-9.85,15.55"/><polyline class="cls-2" points="37.15 251.96 36.29 267.58 52.97 273.75 48.49 284.18 29.39 272.87"/><polygon class="cls-6" points="63.15 280.8 52.97 321.79 105.94 321.79 104.91 289.32 74.34 274.18 63.15 280.8"/><polyline class="cls-2" points="68.79 251.96 69.64 267.58 52.97 273.75 57.45 284.18 76.55 272.87"/><path class="cls-2" d="M36.54,263.11H10s-2.64-7.05-3.08-23.94,1.93-41.33,18.57-57.53"/><path class="cls-2" d="M71.27,263.11H88s1.66-4.43,1.94-15.05a65.45,65.45,0,0,0-2.33-20.12"/><line class="cls-7" x1="147.07" y1="240.4" x2="94.62" y2="274.89"/><line class="cls-7" x1="172.45" y1="240.4" x2="224.9" y2="274.89"/><line class="cls-8" x1="160.56" y1="217.31" x2="160.56" y2="217.06"/><line class="cls-9" x1="160.56" y1="198.97" x2="160.56" y2="170.94"/><line class="cls-8" x1="160.56" y1="161.89" x2="160.56" y2="161.64"/><circle class="cls-1" cx="160.56" cy="232.58" r="6.67"/><circle class="cls-1" cx="52.54" cy="146.65" r="17.14" transform="translate(-95.48 195.21) rotate(-88.45)"/><polyline class="cls-2" points="44.95 143.74 55.03 153.9 75.37 133.57"/><path class="cls-3" d="M286.18,146.65a17.14,17.14,0,1,1-17.13-17.13A17.13,17.13,0,0,1,286.18,146.65Z"/><polyline class="cls-2" points="261.46 143.74 271.55 153.9 291.88 133.57"/></g></g></g></g></svg>