<svg xmlns="http://www.w3.org/2000/svg" viewBox="0 0 323.93 323.93"><defs><style>.cls-1{fill:none;stroke:#3f1b71;stroke-miterlimit:10;stroke-width:4px;}.cls-2{fill:#8c76aa;}.cls-3{fill:#fff;}.cls-4{fill:#e6c1cd;}.cls-5{fill:#cd8198;}</style></defs><title>Asset 22</title><g id="Layer_2" data-name="Layer 2"><g id="icons"><g id="_04._Crowdfunding" data-name="04. Crowdfunding"><g id="_04-community" data-name="04-community"><circle class="cls-1" cx="81.93" cy="242" r="79.93" transform="translate(-147.12 128.81) rotate(-45)"/><path class="cls-1" d="M202.46,42a40,40,0,1,0-40,40A40,40,0,0,0,202.46,42Z"/><line class="cls-1" x1="144.03" y1="77.4" x2="105" y2="164.68"/><line class="cls-1" x1="194.49" y1="65.93" x2="294.46" y2="150.87"/><path class="cls-2" d="M127.64,287a64.07,64.07,0,1,0-90.23,1"/><path class="cls-3" d="M37.41,288A61.47,61.47,0,0,1,40,279.39l0-.12,27-9.11,5.15-1.73h0l-5.15,1.73c1.11,2.67,4.67,8.06,15.21,8.32H83c10.55-.26,14.1-5.65,15.22-8.32l-5.15-1.73,5.15,1.73,27,9.11a.61.61,0,0,0,0,.12,54.92,54.92,0,0,1,2.32,7.57"/><path class="cls-4" d="M40,279.39A61.47,61.47,0,0,0,37.41,288q2.06,2,4.3,3.81C41.13,285.72,40.53,280.53,40,279.39Z"/><path class="cls-4" d="M82.26,278.48H83c10.55-.26,14.1-5.65,15.22-8.32l-5.15-1.73-1.32-13.71L72,254.56l.18,13.87-5.15,1.73C68.16,272.83,71.72,278.22,82.26,278.48Z"/><path class="cls-5" d="M125.27,279.27l-27-9.11c-1.12,2.67-4.67,8.06-15.22,8.32h-.78c-10.54-.26-14.1-5.65-15.21-8.32l-27,9.11,0,.12c.54,1.14,1.14,6.33,1.72,12.42a64.05,64.05,0,0,0,82-1.19c.54-5.56,1.09-10.17,1.6-11.23A.61.61,0,0,1,125.27,279.27Z"/><path class="cls-3" d="M82,260.24c2.46,0,4.82-2.25,4.82-2.25,6.92-4,8.91-6.78,10.27-10s2.78-6.88,2.78-6.88c1.73,0,3.57-2.15,4.25-5.45s.73-6.92-1-7.47a3.05,3.05,0,0,0-2.88.55,15.35,15.35,0,0,1,.16-3.58,2.48,2.48,0,0,1,.14-1.68,11,11,0,0,0-.39-6.19c-.87-2.61-4.25-3.43-4.25-3.43a12.31,12.31,0,0,0-2.2-6.74c-1.81-2.75-7.78-5-10.77-4.4a67.86,67.86,0,0,0-8,1.57c-5.74,1.41-8.94,5.43-8.88,7.49a14.16,14.16,0,0,1-2,7.29c-1.52,2.61-.84,4.44-.53,6.09a15.35,15.35,0,0,1,.16,3.58,3.05,3.05,0,0,0-2.88-.55c-1.68.55-1.63,4.17-.95,7.47s2.52,5.41,4.25,5.45c0,0,1.41,3.62,2.78,6.88s3.35,6,10.27,10c0,0,2.36,2.25,4.82,2.25"/><path class="cls-4" d="M123.72,290.62c1.35-1.16,2.66-2.39,3.92-3.66a54.92,54.92,0,0,0-2.32-7.57C124.81,280.45,124.26,285.06,123.72,290.62Z"/><line class="cls-1" x1="178" y1="225.93" x2="210" y2="225.93"/><line class="cls-1" x1="178" y1="241.93" x2="258" y2="241.93"/><line class="cls-1" x1="178" y1="257.93" x2="258" y2="257.93"/><line class="cls-1" x1="178" y1="273.93" x2="258" y2="273.93"/><line class="cls-1" x1="178" y1="305.93" x2="186" y2="305.93"/><polygon class="cls-5" points="162.5 20.99 167.21 35.48 182.45 35.48 170.12 44.44 174.83 58.94 162.5 49.98 150.17 58.94 154.88 44.44 142.55 35.48 157.79 35.48 162.5 20.99"/><path class="cls-1" d="M321.93,161.93a16,16,0,1,0-16,16A16,16,0,0,0,321.93,161.93Z"/><line class="cls-1" x1="298.26" y1="161.93" x2="313.67" y2="161.93"/><line class="cls-1" x1="305.96" y1="154.23" x2="305.96" y2="169.63"/></g></g></g></g></svg>