<svg xmlns="http://www.w3.org/2000/svg" viewBox="0 0 322.25 293.35"><defs><style>.cls-1{fill:#e6c1cd;}.cls-2{fill:#fff;}.cls-3{fill:none;stroke:#3f1b71;stroke-miterlimit:10;stroke-width:4px;}.cls-4{fill:#cd8198;}</style></defs><title>Asset 18</title><g id="Layer_2" data-name="Layer 2"><g id="icons"><g id="_20._Mobile_Communication" data-name="20. Mobile Communication"><g id="_20-play-games" data-name="20-play-games"><rect class="cls-1" width="320" height="176" rx="12" ry="12"/><rect class="cls-2" x="9.67" y="11.33" width="278.67" height="154.67"/><circle class="cls-3" cx="304" cy="88.14" r="6.47"/><path class="cls-3" d="M167.9,291.94l-29-29s-11.53-10.17-.34-21.36,21.88-.17,21.88-.17l37,37h0V146.75s-1-15.35,14.87-15.35,15.59,15.35,15.59,15.35V223.5s.24-15.35,15.59-15.35,15.35,15.35,15.35,15.35,0-15.35,15.35-15.35,15.34,15.35,15.34,15.35,0-15.35,15.36-15.35,15.34,15.35,15.34,15.35V292"/><line class="cls-3" x1="184.14" y1="32.13" x2="184.14" y2="143.87"/><line class="cls-3" x1="136.14" y1="32.13" x2="136.14" y2="143.87"/><line class="cls-3" x1="104.26" y1="64" x2="216.01" y2="64"/><line class="cls-3" x1="104.26" y1="112" x2="216.01" y2="112"/><line class="cls-3" x1="123.39" y1="51.25" x2="104.26" y2="32.13"/><line class="cls-3" x1="104.26" y1="51.25" x2="123.39" y2="32.13"/><line class="cls-3" x1="169.56" y1="97.56" x2="150.44" y2="78.44"/><line class="cls-3" x1="150.44" y1="97.56" x2="169.56" y2="78.44"/><path class="cls-4" d="M214.79,41.69A10.28,10.28,0,1,0,204.51,52,10.28,10.28,0,0,0,214.79,41.69Z"/><path class="cls-4" d="M124.11,88.28a10.29,10.29,0,1,0-10.29,10.28A10.29,10.29,0,0,0,124.11,88.28Z"/><circle class="cls-4" cx="160.14" cy="133.47" r="10.28" transform="translate(-26.38 40.36) rotate(-13.28)"/></g></g></g></g></svg>