<svg xmlns="http://www.w3.org/2000/svg" viewBox="0 0 253 320"><defs><style>.cls-1{fill:#e6c1cd;}.cls-2{fill:#cd8198;}.cls-3{fill:#d799ac;}.cls-4,.cls-5{fill:none;stroke:#3f1b71;stroke-miterlimit:10;}.cls-4{stroke-width:6px;stroke-dasharray:4.03 18.14;}.cls-5{stroke-width:4px;}.cls-6{fill:#8c76aa;}</style></defs><title>Asset 7</title><g id="Layer_2" data-name="Layer 2"><g id="icons"><g id="_12._Gamification" data-name="12. Gamification"><g id="_12-clock" data-name="12-clock"><path class="cls-1" d="M142.36,178.5s-6-8.5-6-18.5,6-18.5,6-18.5C206.15,87,205.89,16,205.89,16l-79.39-.14h-.14L47,16s-.27,71,63.52,125.5c0,0,6,8.5,6,18.5s-6,18.5-6,18.5C46.71,233,47,304,47,304l79.38.14h.14l79.39-.14S206.15,233,142.36,178.5Z"/><path class="cls-1" d="M126.5,16.86l78.37.14c-.13,4.06-1.06,20.19-7.8,41.09a182.26,182.26,0,0,1-55.36,82.65l-.09.08-.08.1c-.25.36-6.18,8.88-6.18,19.08s5.93,18.72,6.18,19.08l.08.1.09.08a182.26,182.26,0,0,1,55.36,82.65c6.74,20.9,7.67,37,7.8,41.09l-78.37.14h-.14L48,303c.12-4.06,1-20.19,7.79-41.09a182.26,182.26,0,0,1,55.36-82.65l.09-.08.08-.1c.25-.36,6.18-8.88,6.18-19.08s-5.93-18.72-6.18-19.08l-.08-.1-.09-.08A182.26,182.26,0,0,1,55.79,58.09C49.05,37.19,48.12,21.06,48,17l78.36-.14h.14m0-1h-.14L47,16s-.27,71,63.52,125.5c0,0,6,8.5,6,18.5s-6,18.5-6,18.5C46.71,233,47,304,47,304l79.38.14h.14l79.39-.14s.26-71-63.53-125.5c0,0-6-8.5-6-18.5s6-18.5,6-18.5C206.15,87,205.89,16,205.89,16l-79.39-.14Z"/><path class="cls-2" d="M126.88,141s-15.22-4.1-32.25-25c0,0-9.59-12-13.12-17.88,0,0,8.78,1,16-3s22.94-21.5,38-18.18,19.33,12.4,25,13.12,13.4.18,17.67-2C178.09,88.06,159.29,125.42,126.88,141Z"/><path class="cls-2" d="M52.5,304s22-10,31.5-20,13-13,18-13,14-12.5,16.5-18.5,12-12,27,7.5,55,44,55,44Z"/><rect class="cls-3" x="30.5" y="304" width="192" height="16"/><rect class="cls-3" x="30.5" width="192" height="16"/><circle class="cls-4" cx="126.5" cy="159.09" r="123.5"/><polyline class="cls-5" points="46.5 99.5 126.5 160.5 183.5 141"/><line class="cls-5" x1="139.01" y1="133.81" x2="91" y2="238.5"/><line class="cls-5" x1="150.5" y1="108.76" x2="146.11" y2="118.33"/><path class="cls-5" d="M151.17,126.2a8.67,8.67,0,1,1-8.67-8.67A8.67,8.67,0,0,1,151.17,126.2Z"/><path class="cls-6" d="M131.84,160a6,6,0,1,1-6-6A6,6,0,0,1,131.84,160Z"/></g></g></g></g></svg>